<?xml version="1.0" encoding="UTF-8"?><svg id="Layer_1" xmlns="http://www.w3.org/2000/svg" viewBox="0 0 1324.84 297.27"><defs><style>.cls-1{fill:#e3f3f7;}</style></defs><path class="cls-1" d="M627.17,61.82c-.03-.06-.06-.12-.09-.18.36-.5.59-1.06.67-1.63.11-.81-.1-1.6-.58-2.23-.4-.52-.45-1.03-.51-1.95l-.04-.51c-.06-.67-.29-1.87-1.21-2.46-.74-.47-.83-1.01-.76-2.74.03-.56.06-1.33-.25-2.05-.83-1.9-1.7-3.79-2.58-5.71l-1.34-2.91-1.08.12c-1.66.19-2.02-.69-2.14-1.48-.46-2.92-2.29-4.77-3.9-6.4l-.42-.42c-.06-.08-.09-.18-.14-.27-.13-.27-.3-.64-.6-.97-.8-.89-1.76-1.94-2.82-2.91-.38-.35-.78-.57-1.14-.77-.2-.11-.48-.27-.56-.36-2.14-2.52-4.9-3.92-7.55-5.05-1.46-.62-2.95-1.15-4.4-1.65-.68-.24-1.36-.48-2.04-.72-1.16-.43-2.32-.86-3.43-1.27l-2.08-.77-4.31,1.59-1.55-2.5-1.22.61c-.27.13-.52.06-1.32-.28-.82-.35-1.95-.83-3.3-.5-.59.14-1.33.09-2.12.04-.96-.06-2.04-.14-3.11.14-.4.11-.8.23-1.2.35-1.22.38-2.28.7-3.3.5-1.6-.31-2.92.19-3.99.6-.51.2-1,.38-1.46.46-1.99.34-3.74.77-5.34,1.3-1.64.55-3.21,1.29-4.72,2.01l-.31.15c-1.62.77-3.22,1.59-4.74,2.44-1.09.61-2.14,1.25-3.24,1.92-.48.29-.96.59-1.46.89l-.64.39-.14,1.41c-.54-.15-1.12-.2-1.69.08-1.36.65-2.54.54-4.1-.38-.7-.41-1.47-.3-1.97-.23-.56.08-1-.03-1.66-.81-.84-1.01-2.08-2.19-4.17-2.33-.5-.03-1.19-.35-1.4-.55-1.05-2.72-3.28-3.42-5.08-3.99-.29-.09-.58-.18-.86-.28-1.22-.42-2.44-.87-3.44-1.24l-1.48-.54-.38.06c-.64.1-1.25.25-1.78.38-.42.11-.98.25-1.24.26-1.25-.8-2.51-.88-3.54-.95-.12,0-.24-.02-.35-.02l-.67-2.02h-1.08c-.74,0-1.46,0-2.19,0-1.76.01-3.42.02-5.1-.03-1.59-.03-2.85.47-3.98,1.6-.16.16-.59.35-1.01.4-.83.08-1.69.05-2.61.02-1.93-.07-4.1-.15-6.19.94-2.63-.22-4.26,1.65-5.08,2.57-.29.33-.42.43-.41.44-1.06.27-2.33.91-3.14,2.4-.95-.49-1.62-.72-2.37-.73-.08-.54-.24-1.04-.38-1.49-.28-.92-.43-1.46-.19-2.03l.88-2.08h-2.26c-.23,0-.43,0-.62,0-.45-.01-.83-.01-1.21.02-.44.04-.92.01-1.43-.01-1.36-.07-3.02-.15-4.62.98-.21-.03-.55-.11-.77-.17-.21-.05-.42-.1-.6-.14-.21-.04-.46-.14-.73-.24-.51-.19-1.08-.4-1.75-.43-1.05-.05-2.09-.04-3.1-.03-.92.01-1.79.02-2.67-.02-2.64-.11-4.78.88-6.87,1.83-.14.07-.33.13-.51.2-.85.31-2.01.74-2.01,1.97h0c-.12.06-.3.12-.43.17-.35.12-.79.27-1.22.54l-.89.56.22,1.03c.09.43.22.86.35,1.29.16.51.38,1.21.31,1.48-.49,1.83.68,2.86,1.25,3.36.04.03.08.07.12.1-.34.51-.77,1.15-.86,1.96-.09.75-.15,1.49-.22,2.24-.15,1.66-.29,3.22-.66,4.82-.81,3.47-.26,6.89.27,10.19.29,1.77.55,3.44.63,5.12.03.67.41,1.13.61,1.38.03.04.06.07.06.06.54,1.06.27,3-.59,4.16-.67.9-1.09,2.14-1.13,3.3-.08,2.53-.06,5.1-.05,7.58v1.73c.02,1.24.27,2.33.8,3.44.17.36.05,1.25-.05,1.96-.04.27-.08.53-.1.79-.03.23-.12.53-.23.85-.18.53-.37,1.14-.38,1.83-.05,4.82-.04,9.71-.03,14.45v3.07c0,.27,0,.55-.02.83-.04.88-.09,1.88.23,2.86.25.76.7,1.38,1.17,1.95-1.46,1.55-1.51,3.56-1.39,5.06.05.57.03,1.17.02,1.81-.02.71-.04,1.44.03,2.19.1,1.16.3,2.32.49,3.43.06.38.13.76.19,1.14-.05.21-.11.42-.17.63-.23.82-.5,1.76-.5,2.77-.05,9.19-.04,18.53-.03,27.56v3.44c0,.12,0,.26,0,.4-.04.76-.08,1.81.63,2.56.39.41.41.84.38,1.85,0,.31-.02.63,0,.94.02.52,0,1.04,0,1.56-.01.82-.03,1.66.05,2.53.04.47.15.91.28,1.32l-1.28.3v1.18c0,.57-.04,1.16-.09,1.79-.12,1.56-.24,3.17.32,4.69.22.58.09,1.15-.13,2.02-.25.98-.55,2.19-.04,3.53.07.18.12.37.17.55.05.18.11.37.17.55.08.24.18.47.28.71.1.23.23.54.24.66.07,1.68.07,3.52,0,5.64,0,.24-.12.57-.28.83-1.34,2.18-.55,4.38-.29,5.1.27.75.67,1.41,1.03,2l.26.43c.37.63.69,1.56.12,2.43-1.25,1.92-2.66,4.86-.46,8.21.15.23.31.38.43.5l.49.51,2.08.13c-.37,1.12-.72,2.17-1.25,3.01-.74,1.19-1.51,2.89-.65,4.81l-2.46,1.33v3.81c0,3.88,0,7.76,0,11.64,0,10.28-.02,20.91.04,31.36,0,.82-.02,1.63-.05,2.45-.09,2.94-.19,5.98,1.05,9.07l.07.18c.85,2.11,1.48,3.31,4.55,3.33,1.48,0,2.96,0,4.44-.03,2.95-.03,6.01-.07,8.97.1,2.22.14,3.93-.72,5.44-1.46.64-.32,1.25-.61,1.86-.83.55-.19,1-.63,1.33-1.29.18-.37.39-.73.59-1.09.58-1.03,1.17-2.09,1.42-3.33l.04-.22c.36-1.82.81-4.07-.65-6.32-.04-.32.16-1.15.26-1.55l.03-.13c.14-.59.38-1.19.63-1.82.46-1.17.99-2.5.98-4.06-.01-3.77-.01-7.54-.01-11.3,0-4.9,0-9.8-.03-14.7,0-.9-.23-1.74-.41-2.41-.03-.12-.07-.24-.09-.36.05-.23.1-.45.15-.66.17-.71.35-1.44.36-2.22.02-2.04.02-4.08.01-6.12,0-2.42-.01-4.92.04-7.42.03-1.8.07-3.96-1.43-5.73,1.43-1.5,1.88-3.55,1.25-5.95-.43-1.67-1.13-3.2-1.88-4.81-.2-.44-.41-.89-.61-1.35.04-.05.08-.11.12-.16.58-.8,1.24-1.7,1.82-2.67.58-.95.67-2.06.68-2.63v-.82c.05-3.35.09-6.82-.03-10.24-.03-.81-.29-1.53-.53-2.16-.18-.47-.34-.92-.34-1.23,0-.32.17-.76.34-1.24.24-.65.52-1.39.53-2.23.1-6.29.06-12.61.02-18.03,0-.53-.11-2.31-1.27-3.18-.59-.44-.91-.99-.69-2.36.1-.6.11-1.19.12-1.75.03-1.41.09-2.18.87-2.82.95-.79.97-2.17.98-3.24.03-3.3.06-7.66,0-12.03,0-.25.02-.51.04-.78.07-.88.16-2.11-.53-3.25.73-1.05.61-2.23.53-3.01-.02-.21-.05-.42-.04-.61.01-5.73.01-11.45.01-17.18,0-7.77,0-15.54.04-23.31,0-.57-.02-1.15-.04-1.72-.08-1.89-.14-3.53.7-5.1.54-1.02.45-2.14.37-3.12-.04-.5-.08-.96-.03-1.33.09-.71.29-1.43.5-2.19.15-.56.31-1.12.42-1.68.15-.7.23-1.4.31-2.08.04-.29.07-.58.11-.88l.2-1.43-.65-.11c1.41-1.02,2.34-2.35,3.12-3.56.82-1.27,1.99-2.36,3.23-3.52.41-.38.82-.76,1.22-1.15.04-.01.09-.02.14-.03.2-.04.39-.09.57-.15l.55-.19c.51-.17,1.04-.35,1.58-.57.4-.17.78-.39,1.1-.58.3-.18.81-.47.98-.48,2.82-.02,3.97-1.85,4.5-3.15.63-.05.79.19.95.46,1.01,1.62,2.7,1.6,3.7,1.61.53,0,1.07-.03,1.6-.06,1.17-.07,2.28-.13,3.17.14.69.21,1.36.46,2.04.71,1.27.47,2.59.95,4.02,1.22.02.02.04.04.06.06.16.16.33.32.5.44.61.44,1.22.86,1.84,1.28.45.31.91.61,1.37.91.96.63,1.96,1.29,2.88,1.97.77.57.88.86.88.86.34,1.24.57,2.5.81,3.84.1.58.21,1.15.32,1.72.06.29.16.51.26.73l.27.65,1.23.39c-.11.83-.04,1.6.02,2.27.03.31.06.62.06.93.05,2.29.58,4.23,1.62,5.93.68,1.09.55,1.37.27,1.76-.49.68-.34,1.43-.25,1.84l.02.12c.13.78.28,1.55.45,2.41l.56,2.82-1.81,1.32.61,1.15c.81,1.52.92,2.95.36,4.37-1.05,2.62-1.07,5.27-.08,8.35.38,1.18.4,2.62.04,3.56-.39,1.04-.76,2.15-.68,3.41.03.43.03.86.03,1.28,0,1.11,0,2.37.46,3.72.15.43-.03,1.23-.19,2-.12.56-.25,1.14-.3,1.75-.09,1.07-.06,2.12-.01,3.19.01.26,0,.53,0,.79-.02,1.15-.04,2.58,1,3.95,0,.22-.07.59-.15.73-1.41,2.25-.86,4.49-.46,6.12.08.33.23.59.35.77-.05,2.02.09,4.16,1.21,6.29-.01.27-.19.85-.29,1.14l-.04.13c-.16.51-.34,1-.51,1.5-.58,1.61-1.18,3.28-1.16,5.25.09,9.62.08,18.04-.01,25.71-.03,2.05.11,4.34,1.85,6.22-.2.22-.42.44-.64.66-.82.79-1.64,2.19-.88,4.33.26.72.52,1.44.8,2.18l.65,1.75.26.08c-1.67,2.15-2.96,4.71-1.15,7.88-.93,1.49-.9,3.15-.88,4.22.04,2.06.03,4.17.03,6.21,0,1.34,0,2.68,0,4.02,0,1.02.08,2.21.82,3.54.27.48.3,1.44.18,1.68-1.13,1.58-1.01,3.09-.92,4.3.02.28.04.56.05.85l.02,1.3,1.29.17c.88.12,1.31.41,1.55.77-.26.31-.76.49-1.81.73l-1.17.27v6.98c0,7.92,0,15.77.03,23.61,0,.75.28,1.39.5,1.87-.92,2.77-.89,5.45.09,7.98.58,1.51.61,2.7.08,3.74-.63,1.24-1.12,2.77.1,4.67.11.17.21.55.22.77-1.25,1.7-1.11,3.47-1,4.89.05.63.1,1.23.02,1.74l-.17,1.09.98.49c.31.15.63.28.94.4.26.1.66.26.74.32,1.33,1.74,3.04,1.93,4.54,1.88.68-.02,1.36-.01,2.04,0,.89.01,1.82.02,2.75-.04.7-.04,1.33-.25,1.93-.46.04-.01.08-.03.12-.04,1.55.85,3.26.65,4.67.49.52-.06,1.02-.12,1.48-.13.78-.02,1.41-.58,1.69-1.12.28-.56.69-.67,2.04-.8.22-.02.44-.04.65-.07l.99-.12.45-1.58c.16-.05.31-.1.46-.15.99-.32,2.01-.65,2.61-1.57l.34-.52c1.38-2.07,2.94-4.41,2.66-7.47-.1-1.09-.28-2.16-.46-3.19-.12-.71-.24-1.41-.33-2.12-.08-.6,0-.8,0-.8,1.17-2.56.86-6.16.08-8.42-.2-.58-.09-1.49.01-2.37.03-.28.07-.56.09-.83.01-.11.11-.36.19-.56.17-.43.39-.97.4-1.61.06-3.67.04-7.31.02-11.08,0-.76-.01-1.79-.68-2.57-.42-.49-.4-.98-.25-2.13.03-.26.07-.52.08-.74.01-.06.04-.12.06-.18.09-.26.23-.66.22-1.14-.04-1.16-.3-2.25-.56-3.3-.43-1.76-.8-3.28-.04-4.77.22-.44.2-.85.18-1.1l.05-.44c.16-1.42.32-2.89-.07-4.48-.06-.27.08-.63.33-1.21.22-.5.47-1.08.54-1.73.22-1.9.18-3.8.13-5.64-.02-.71-.03-1.42-.03-2.12v-.98l-.9-.39c-.34-.15-.67-.26-1-.38-.24-.08-.42-.14-.55-.2,1.59-2.17,2.02-4.66,1.1-6.71-.07-.15-.16-.32-.24-.49.03-.01.06-.03.09-.04.26-.13.54-.26.81-.41l.89-.52-.17-1.02c-.1-.65-.06-1.39-.02-2.16.09-1.61.21-3.62-1.07-5.53-.11-.27-.02-1.14.21-1.5.87-1.39.88-2.69.88-3.86,0-.32,0-.64.02-.97.04-1.82.09-3.87-.96-5.82.09-1.32.02-2.63-.05-3.9-.14-2.43-.26-4.72.78-6.82.25-.5.24-1,.23-1.3v-.11s0-1.65,0-1.65c0-1.93.02-3.92-.02-5.88-.02-.89-.29-1.78-.76-2.44-1.38-1.96-1.08-3.09-.21-4.19.34-.42.9-1.28.92-2.26.04-2.46.03-4.92.03-7.35v-3.42s-1.65-.44-1.65-.44c2.01-3.46,2.37-6.71,1.07-9.9.74-.93.67-2.03.63-2.68,0-.14-.02-.28-.02-.41.02-7.83.01-15.67,0-23.5,0-.52-.05-1.01-.1-1.48-.02-.19-.04-.37-.05-.56l-.08-1.02-1.53-.46c.23-1.45.88-3.79,1.47-4.84l.34-.61-.25-.65c-.19-.49-.38-.98-.58-1.47-.46-1.16-.9-2.25-1.18-3.35-.05-.19.04-.66.08-.75,2.19-1.91,2.05-4.21,1.69-6.01l-.17-.85-1.61-.53c-.03-1.22.15-1.97.94-2.75.96-.96,1.31-2.3,1.62-3.49.1-.39.2-.79.33-1.15.11-.33.12-.64.11-.88.92-1.31.97-2.78,1.01-3.99.04-1.19.09-1.94.58-2.5l.44-.5-.07-.66c-.05-.5-.08-.78,1.28-1.45,2.69-1.3,3.61-3.22,3.8-4.93.29-.12.55-.26.76-.38.1-.05.24-.13.33-.18,0,0,0,0,0,0l.63.55.8-.25c.63-.2,1.26-.43,1.89-.66,1.29-.48,2.51-.93,3.77-1.05l.81-.09.37-.75c.09-.04.4-.05.61-.06.62-.03,1.46-.07,2.25-.61,1.25-.87,2.95-.54,4.45-.11.6.17,1.21.41,1.84.66,1.36.54,2.9,1.14,4.67,1.14.02,0,.04,0,.05,0,.09,0,.17.02.19.03.44.25.89.5,1.33.75,2.86,1.6,5.55,3.11,7.28,5.82,1.24,1.94,2.26,4.01,3.12,6.31.21.56.32,1.19.43,1.85.15.91.31,1.84.75,2.72.58,1.17.61,2.27.59,3.58-.02,1.4.17,3,1.68,4.25.07.1.19.43.26.65.05.16.11.32.17.47.18.46.33.93.47,1.37-.07.09-.13.18-.2.27-.58.8-1.24,1.7-1.28,2.84-.13,3.52-.11,7.11-.09,10.57,0,1.25.01,2.51.01,3.77v1.26l1.24.22c.19.03.36.07.51.11-1.45.91-1.74,1.97-1.75,4.39,0,.53,0,1.06.02,1.6.02,1.05.05,2.05-.05,3.02-.23,2.43.39,4.33,1.9,5.8l-2.24,4.19,2.12,2.6c-.07.3-.14.59-.21.89-.21.84-.43,1.71-.5,2.64-.09,1.04-.07,2.07-.05,3.06,0,.51.02,1.03.01,1.54,0,.13,0,.27,0,.41,0,.09.01.19.01.28-1.21,1.48-1.09,3.14-1.01,4.37.03.46.06.89.03,1.27-.1,1.11.23,2.66,2.35,3.7l.85.42.62-.49h.01c-1.75,2.19-1.85,2.83-1.86,6.23v1.34l-1.9.76v7.46l1.7.55c-.21,1.24-.05,2.4.19,3.5.11.49.08,1.08.05,1.71l-2.03.63v3.18c0,2.08,0,4.13.02,6.2,0,.59.2,1.07.36,1.46.04.11.09.22.13.34.79,2.58.6,5.24.41,8.05-.04.53-.08,1.06-.11,1.6-.93,1.03-.86,2.3-.82,3.11,0,.18.02.36.02.54v.64c-.05,1.79-.09,3.64.02,5.48.07,1.13.28,2.22.48,3.28.07.36.14.72.2,1.09-.05.25-.11.5-.17.76-.2.86-.4,1.76-.51,2.7-.23,1.86.14,3.56.5,5.21.14.65.28,1.29.38,1.95.22,1.5.05,2-.03,2.14-.76,1.28-.86,2.39-.86,3.31,0,3.84-.01,7.67,0,11.51v.33c-.02.8-.04,1.9.72,2.65.27.27.3.51.27,1.35,0,.21-.01.43,0,.64.02,1.11.02,2.21.01,3.32,0,.97,0,1.95,0,2.92v.28c-.01.68-.03,1.61.58,2.34.58.7.53,1.4.37,2.66-.01.13-.03.25-.04.38l-2.21.69.22,1.29c.22,1.33.15,2.71.06,4.16-.14,2.48-.29,5.04,1.03,7.61,0,.02,0,.05,0,.07-.01.14-.02.28-.02.41v.9c0,1.44.01,2.89,0,4.33v.23c0,.21,0,.54-.03.63-1.46,3.18-1.49,6.52-.08,9.92.1.24.16.5.17.66-1.26,1.87-1.14,3.87-1.04,5.49.04.71.08,1.38.02,1.99-.06.57.06,1.07.19,1.59.06.23.12.5.18.83l.68,3.67,2.05-3.12c.41-.63,1.04-1.4,1.72-1.51.49-.09,1.12.17,1.88.76,1.57,1.22,3.28,1.32,4.74,1.27.83-.03,1.65-.03,2.48-.02.4,0,.81,0,1.21,0,.37.04.75.02,1.13.04,1,.06,2.14.12,3.25-.18,1.07-.3,1.95-.93,2.79-1.53.09-.06.17-.12.26-.19.03.02.06.04.09.06,1.82,1.12,4.09,2.52,7.13,1.45l1-.35v-6.7l-1.77-.52c.07-.32.15-.65.23-.75,2.71-2.91,1.77-6.03,1.08-8.31-.31-1.03-.35-2.15-.1-2.67.6-1.23.82-2.45.69-3.86-.06-.64-.32-1.2-.53-1.65-.06-.13-.15-.31-.19-.43.06-.18.14-.36.21-.53.27-.65.61-1.46.58-2.48-.03-.88-.01-1.76,0-2.64.02-1.28.03-2.6-.06-3.92-.06-.8-.29-1.54-.5-2.2-.19-.6-.37-1.17-.37-1.64,0-.44.18-.99.36-1.57.23-.71.49-1.51.51-2.38.1-3.67.08-7.39.05-10.98l-.02-2.37c0-.74-.01-1.76-.52-2.62-.97-1.63-.79-3.43-.19-5.82l.08-.33c.31-1.21.62-2.45.63-3.82,0-3.24,0-6.47,0-9.71,0-4.93,0-9.86.03-14.78v-.18c.01-1.77.03-3.89-1.47-5.5,2.17-3.18,2.11-6.14-.16-8.98.06-.11.12-.22.18-.33.7-1.29,1.49-2.76,1.46-4.67-.06-3.96-.05-8-.04-11.91,0-1.77,0-3.55,0-5.32,0-.1,0-.2.02-.31.04-.58.1-1.46-.52-2.15-.59-.66-.58-1.42-.51-2.71.02-.44.05-.87.04-1.3v-.47c-.05-1.27-.08-2.27.53-3.23.67-1.05.39-2.35.16-3.39-.05-.25-.11-.49-.14-.71-.07-.46-.21-.86-.34-1.21-.1-.28-.19-.54-.2-.71-.07-.98-.05-1.98-.03-3.04v-.57c.02-.32,0-.67-.03-1.02-.02-.35-.06-.94-.04-1.04,1.27-1.72,1.15-3.5,1.04-4.92l-.02-.35c-.05-.8-.32-1.51-.56-2.13-.16-.43-.31-.83-.36-1.17-.12-.87-.39-1.65-.65-2.4-.37-1.09-.69-2.03-.49-2.99.15-.71-.13-1.32-.44-1.79l.03-.05c.46-.66.88-1.27,1.31-1.87,1.25-1.74,1.22-3.59,1.2-5.23,0-.46-.01-.91.01-1.36.09-1.56-.05-3.54-1.99-5.05.02-.07.06-.16.13-.3.81-1.59,1.4-3.13,1.73-4.57.24-1.05.06-2.4-.48-3.5.07-.18.13-.36.17-.58.35-1.8.61-3.55.02-5.13-.07-.19-.15-.37-.22-.55-.09-.21-.21-.49-.23-.52,0,0,.03-.06.15-.19.67-.73.68-1.71.69-2.43v-.65c.05-1.45.08-2.95-.02-4.45-.05-.78-.25-1.52-.45-2.23-.03-.12-.06-.23-.1-.35,1.62-2.91.23-5.58-.91-7.75Z"/><path class="cls-1" d="M1302.48,250.71c-.17-.82-.59-2.92-2.42-4.02l3.01-4.76-1.29-.8c-1.29-.8-1.27-1.67-1.1-3.58,0-.06,0-.12.01-.18l2.06-.73-.12-1.17c-.05-.46-.05-.93-.05-1.42,0-1.29,0-2.75-.91-4.32-.18-.31-.24-.88-.31-1.49-.1-.87-.21-1.93-.75-2.93.02-.09.05-.22.08-.27,1.58-2.44,1.1-4.73.35-6.44,2.03-2.21,1.86-3.39.86-6.25-.41-1.19-.45-2.67-.08-3.37.83-1.58.91-2.93.23-4.31.3-.39.47-.82.53-1.27.1-.81-.19-1.59-.87-2.33.05-.14.14-.34.2-.47,1.35-2.95.82-5.96.35-8.61-.08-.46-.24-.86-.38-1.21-.08-.2-.2-.5-.21-.55.38-2.26-.09-4.32-.54-6.31-.31-1.35-.6-2.62-.61-3.89,0-1.27-.56-3.22-1.47-4.28-1.1-1.28-1.57-2.52-1.59-4.15,0-.9-.65-1.45-1.04-1.78-.07-.06-.13-.11-.19-.17l-.39-.41c-.41-.43-.82-.87-1.31-1.28-.87-.72-1-1.28-.94-1.94.08-.89-.18-2.15-.96-2.97-1.11-1.17-2.03-2.47-2.87-3.7-.54-.79-1.23-1.38-1.9-1.95-.6-.51-1.17-.99-1.54-1.56-.46-.71-1.04-1.28-1.58-1.79.08-.12.16-.25.24-.37.65-1.01,1.27-1.96,1.92-2.83.6-.81,1.04-1.08,1.24-1.17,2.26-.98,3.86-2.7,5.05-5.42.07-.17.14-.34.21-.52.08-.2.19-.5.25-.58,2.11-2.14,2.86-4.74,3.58-7.26.14-.5.29-.99.44-1.49l1.64-.47.15-.94c.05-.33.08-.68.1-1.03.01-.24.04-.6.08-.76,1.4-1.69,1.07-3.58.96-4.21-.25-1.45.11-2.93.49-4.49.35-1.41.7-2.86.66-4.43.19-.25.44-.6.52-1.09.15-.84.25-1.68.34-2.5l.26-2.16-1.82-.61c.66-1.66.64-3.33.62-4.84,0-.61-.01-1.18.01-1.69.02-.08.05-.15.08-.22.06-.15.11-.3.15-.45.06-.23.14-.47.22-.7.21-.64.46-1.36.5-2.16.06-1.16.05-2.31.04-3.43,0-.79-.02-1.58,0-2.37.04-1.9-.6-3.55-1.16-5-.17-.42-.32-.83-.46-1.23.97-1.92,1.03-4.14.2-6.76-.67-2.11-.7-4.11-.09-5.51.65-1.48,1.09-2.72,1.36-3.9.2-.85-.05-1.63-.25-2.26-.04-.12-.08-.25-.11-.36-.09-.34-.24-.62-.35-.84-.05-.09-.1-.18-.12-.2-.06-.86-.07-1.71-.08-2.6-.02-2.25-.05-4.59-.89-7.01-.11-.31-.21-.63-.31-.94-.53-1.62-1.08-3.28-2.29-4.81-.15-.19-.29-.55-.42-.9-.06-.15-.11-.3-.17-.45-.22-.54-.41-1.1-.59-1.66-.04-.11-.08-.22-.13-.35.75-1.46.18-2.89-.15-3.7-.07-.17-.14-.34-.19-.5l-.13-.45c-.5-1.66-1.17-3.92-3.64-4.8l-.58-.21-.44.21c0-.58,0-1.14-.03-1.7-.03-.66-.07-1.65-.64-2.46-1.2-1.69-2.44-3.3-3.69-4.78-.52-.61-1.16-1.05-1.72-1.43-.16-.11-.33-.22-.48-.34-.24-.17-.5-.33-.77-.48-.21-.12-.5-.28-.58-.38-2-2.45-4.62-3.72-7.14-4.95l-1.77-.87-.74.57c-.77.59-1.48.85-1.91.68-.39-.15-.71-.74-.86-1.57l-.15-.85-7.33-2.62-.57.32c-.25-.46-.61-.87-1.22-1.04-.38-.1-.79-.29-1.21-.48-.9-.4-2.03-.9-3.42-.85-3.07.14-6.22.1-9.27.07-.97,0-1.94-.02-2.9-.02h-.39c-.18,0-.45.01-.62,0-1.09-1.02-2.32-.99-3.14-.99h-.28c-13.91,0-27.83,0-41.74,0-.47,0-.91.07-1.33.13-.17.03-.34.05-.53.08l-1.99.25.75,1.72c-2.07.45-2.68,1.3-3.3,3.91-.08.33-.24.58-.3.64-1.58,1.27-1.77,2.89-1.75,4.29.03,2.26.03,4.52.03,6.78,0,1.24,0,2.47,0,3.71,0,.36.08.65.15.89.02.06.04.13.05.2l.19.87,1.58.46v.83c0,1.57-.02,3.2.02,4.8.02.74-.12,1.13-.55,1.54-.78.74-1.33,1.87-1.41,2.87-.1,1.32-.08,2.64-.06,3.81,0,.44.01.88.01,1.29v.96l4,1.87c.19,1.26-.22,2.14-1.33,2.96-.25.18-.44.38-.59.54-.06.06-.11.12-.17.17-1.38,1.08-2.02,2.56-1.95,4.52.05,1.42.04,2.89.03,4.3,0,.97-.01,1.94,0,2.91v.31c-.01.8-.02,1.91.75,2.65.17.17.2.3.21.97,0,.31.01.62.05.93.15,1.1.32,2.2.52,3.39l.19,1.17c-1.05,2.41-1.16,5.15-.35,8.49l-1.31.33v1.18c.01.3,0,.6-.03.89-.07,1.16-.17,2.59.9,4.03.04.21,0,.64-.06.77-1.21,1.59-1.01,3.23-.76,4.32.29,1.26.75,2.42,1.21,3.54.08.18.15.37.22.55-.05.07-.11.15-.16.22-.58.79-1.24,1.69-1.3,2.82l-.06,1.05c-.19,3.44-.38,7,.16,10.48.06.4.14.8.22,1.18.32,1.59.45,2.46-.17,3.43l-.24.37v18.68c0,3.69,0,7.36.03,11.02,0,.64.27,1.13.46,1.49.05.09.1.18.12.19.03.27.07.55.11.84.11.79.22,1.61.05,2.12-.83,2.47-1.97,5.86,1.13,8.78.01.02.04.05.05.08,0,.41.02.82.04,1.24.07,1.49.12,2.77-.64,3.81-1.17,1.58-1.28,3.31-1.38,4.83l-.03.41c-.15,2.18.4,4.19,1.8,6.49.54.9.34,1.06.18,1.19-1.96,1.56-1.95,3.68-1.95,4.95.03,9.34.03,19.56,0,31.24,0,1.29.33,2.45.66,3.56.36,1.23.67,2.3.48,3.37-.11.62.16,1.08.33,1.33l.11.3c.18.5.35.98.47,1.46.16.62.3,1.25.45,1.96l.11.49c-.03.07-.07.15-.1.22-.21.45-.44.95-.7,1.19-1.75,1.57-1.88,3.37-1.81,4.76.04.8.03,1.6.02,2.45,0,.49-.01.99,0,1.48,0,.3-.03.63-.05.95-.09,1.05-.19,2.25.45,3.27.52.82.54,1.69.56,2.79.01.51.02,1.04.09,1.6.13,1.06.58,2.16,1.22,2.94q1.01,1.24.08,2.36c-.81.96-1.24,1.9-1.29,2.78-.09,1.53-.08,3.02-.06,4.6,0,.61.01,1.23.01,1.86v1.78l1.76-.31c.15-.03.25-.03.31-.03.05.12.12.37.2.9l.22,1.46,1.46-.19c1.99-.25,2.91,0,3.67.99,1.13,1.48,3.86.57,3.97.53.6-.21,1.15-.48,1.68-.78l.27,1.09h11.54l-.52-1.78h1.57l1.24,3.19,1.63-1.9c1.87-2.18,1.91-4.51,1.95-6.57,0-.51.02-1.02.06-1.53.17-2.12.08-5.07-2.41-7.32.27-.3.53-.58.79-.82,1.09-1.02,1.61-2.25,1.6-3.75-.02-2.27-.02-4.53-.02-6.8,0-2.74,0-5.47-.04-8.21-.01-.87-.32-1.66-.53-2.19.67-2.42,1.1-5.21-.03-8.1.79-1.77.68-3.56.59-5.15-.05-.87-.1-1.69,0-2.46.32-2.58-.19-5.05-1.53-7.36,1.47-1.49,1.63-3.38,1.56-4.95-.08-1.83-.06-3.71-.05-5.53,0-.97.01-1.94,0-2.91,0-.11,0-.23.01-.36.04-.72.08-1.71-.65-2.41-.39-.37-.41-.76-.36-1.77.01-.31.03-.63.02-.94-.02-.61.02-1.24.05-1.9.07-1.35.14-2.74-.19-4.13-.46-1.94-.45-3.63,0-5.47.3-1.21.24-2.41.17-3.56-.03-.5-.06-1.01-.05-1.5v-.4c.02-1.04.03-1.86.51-2.67.85-1.42.35-3.58-.2-4.68-.2-.41-.22-.52-.23-.49,0,0,.02-.05.1-.16.37-.5.63-1.14.78-1.95.18-.96.31-1.19.34-1.23.05-.03.29-.13,1.32-.13,10.18-.02,18.67-.01,26.74.01.49,0,1.05.12,1.55.33,1.1.46,2.2.95,3.29,1.44,1.36.6,2.71,1.2,4.08,1.77.58.24,1.11.12,1.54-.07.19.33.34.75.52,1.31.35,1.05.79,2.37,2,3.37.91.75,1.61,1.94,2.35,3.2.37.62.75,1.27,1.17,1.9l.33.49.09.02c-.19.59-.27,1.23.07,1.86,1.27,2.35,1.82,4.85,1.67,7.64-.02.35-.01,1.56.87,2.21.11.08.15.12.11.88-.01.24-.03.47-.03.71.03,2.47.02,4.93.02,7.4v4.11s1.29.18,1.29.18c.91.13,1.36.37,1.63.76-1.59,2.23-2.24,4.9-1.94,7.94.05.45.03.71.02.83-1.17,1.23-1.07,2.65-1,3.6l.02.21c.14,2,.09,3.99.05,6.08-.07,3.38-.15,6.88.6,10.42.28,1.32.39,2.22.47,2.94.13,1.04.22,1.85.71,2.95-1.76,1.53-1.9,3.58-1.88,5.42.05,4.52.04,9.13.04,13.58v9.58s2.98-.78,2.98-.78c-.06.36-.28.58-.55.8-2.03,1.65-1.36,3.36-.79,4.23l.44.67h3.55c2.38,0,4.78,0,7.17,0h.37c.94.02,2.17.04,3.31-.84.2.09.44.19.71.26,2.3.56,4.11.67,5.68.37,1.18-.23,1.93-1.18,2.59-2.04,1.57.63,3.26.48,4.7-.46,2.24-1.46,1.91-3.77,1.75-4.88-.02-.13-.04-.26-.05-.38l-.07-.62-.48-.39c-.19-.15-.37-.28-.55-.41.27-.13.54-.3.79-.55l.55-.55-.14-.77c-.11-.62-.06-1.34,0-2.11.11-1.58.25-3.53-1.03-5.42,0-.22.1-.63.22-.82,1.42-2.25.93-4.71.64-6.18ZM1270.66,74.13c0,.15.01.31.01.45,0,3.68,0,7.37,0,11.05v6.19s0,.46,0,.46c-.02,1.09-.04,2.49.81,3.74-.85,1.33-.83,2.78-.81,3.91v3.88c0,3.95.01,7.9,0,11.85,0,.18,0,.36.02.54.03.71,0,.73-.09.8-.68.53-.91,1.45-.88,2.14.12,3.62-1.54,6.74-3.29,10.03l-.13.24c-.56,1.06-.61,2.28-.58,2.91.02.6-.1.91-.89,1.29-.94.45-1.87.93-2.8,1.41-1.46.75-2.84,1.46-4.28,2.07-1.1.46-2.3.75-3.58,1.06-.46.11-.91.22-1.36.34h-.06c-.33-.03-.94-.1-1.53.31-1.21.85-2.63.78-4.26.69-.87-.05-1.77-.09-2.69,0l-.39.03c-.81.06-1.81.13-2.85.92-.18.06-.58.06-.76,0-1.2-.97-2.43-.95-3.33-.94h-.35c-3.06-.02-6.11-.02-9.17-.01h-4.76s-.56-1.77-.56-1.77c.27-.38.39-.75.45-1.06.15-.83-.12-1.7-.79-2.57-.1-.12-.29-.38.19-1.55,1.18-2.83,1.15-5.62-.08-8.3-.17-.37-.19-.97-.16-1.09.94-1.37.95-2.74.95-3.84v-.32c.01-.76,0-1.53-.01-2.3-.02-1.34-.04-2.6.05-3.86.19-2.83-.35-5.23-1.65-7.3,1.05-1.81,2.06-3.87,1.44-6.54l-.19-.8-1.59-.56c.08-.77.17-1.56.3-2.32.04-.24.14-.52.24-.82.16-.47.34-.99.39-1.59.04-.45.05-.91.05-1.36,0-1.11.03-1.77.5-2.37.63-.81.56-1.8.5-2.6-.01-.18-.03-.36-.03-.52,0-2.35,0-4.71,0-7.06,0-4.81,0-9.78.03-14.67v-.28c.02-1.74.04-3.81-1.44-5.51,1.61-1.8,1.51-4.04,1.43-5.63-.04-.73-.03-1.47-.01-2.25,0-.74.02-1.49,0-2.23-.01-.37.06-.58.53-.84,2.73-1.5,4.65-1.62,6.62-.46.72.43,1.53.4,2.12.38.12,0,.22-.02.35,0,.84,0,1.7,0,2.54-.02,1.61-.02,3.27-.04,4.87.05,2.13.13,4.11-.42,5.97-1.68,1.52.68,3.1,1.35,4.88,1.79,2.12.52,4.25.81,6.47.83.66.57,1.33,1.14,1.99,1.71,2.05,1.75,4.17,3.57,6.12,5.45,1.22,1.18,2.25,2.62,3.42,4.4.13.22.11,1.06.1,1.54-.04,1.62.14,3.55,1.81,5.53,1.78,2.1,1.59,3.28.75,4.41-.61.82-.57,1.82-.54,2.63Z"/><path class="cls-1" d="M767.99,144.45c-.49-.96-.34-1.3-.1-1.66.96-1.38.99-2.86.08-4.39-.33-.57-.63-1.16-.89-1.69v-.03c.12-.44.25-.88.39-1.3.45-1.43.88-2.78,1.12-4.21.23-1.34.17-2.67.11-3.95-.02-.36-.03-.72-.04-1.08,0-.2,0-.4,0-.6.01-1.07.03-2.4-.97-3.72-.03-.24.04-.72.15-.89,1.11-1.67,1.31-3.84.53-5.51-.21-.44-.24-.95-.29-1.54-.05-.67-.1-1.42-.39-2.12-.01-.14.09-.54.16-.78.05-.21.11-.41.15-.6.06-.29.15-.57.24-.85.17-.57.37-1.22.41-1.93.05-.89.04-1.77.02-2.62-.01-.91-.03-1.76.03-2.6.18-2.54-.35-4.76-1.62-6.8-.65-1.04-.64-1.94,0-3.1.78-1.38,1.18-2.92,1.49-4.25.55-2.34-.82-5.29-3.05-6.58-.41-.24-.77-.5-1.09-.78l4.23-2.67v-.83c0-.58,0-1.18.01-1.79.02-1.57.04-3.2-.05-4.85-.07-1.36-.42-2.67-.99-3.68-.63-1.13-1.39-2.17-2.12-3.17-.1-.13-.19-.26-.29-.4.58-1.1.5-2.3.45-3.24-.02-.26-.03-.52-.03-.76l.28-3.4c.09-1.08-.03-2.07-.38-3.13-.12-.38-.23-.77-.33-1.17-.32-1.21-.68-2.57-1.58-3.62-.81-.94-1.1-1.68-1.05-2.64l.06-1.04-3.99-1.79c0-.08,0-.15.01-.22.4-4.75-1.71-8.42-6.27-10.91-.47-.25-.6-.4-.59-.38-1.3-3.38-4.1-5.05-6.58-6.51-.49-.29-.97-.58-1.44-.88-1.54-.98-3.18-1.75-4.78-2.5-1.03-.48-2.1-.98-3.09-1.52-1.33-.72-3.14-1.51-5.36-1.3-.14.02-.4-.02-.66-.14-2.4-1.09-4.8-2.06-7.65-1.87-.72.05-1.52-.1-2.37-.26l-.4-.07c-.17-.03-.39-.12-.63-.21-.43-.17-.97-.37-1.6-.4-1.55-.08-3.11-.05-4.61-.03h-.73s-.22,0-.22,0c-.69,0-1.73-.02-2.37.8-.15.19-.22.24-1.08.2-.25-.01-.51-.03-.75-.02-1.09.02-2.18.02-3.27.01-.91,0-1.81,0-2.72,0-1.7.02-3.22.64-4.27,1.73-1.02,1.07-1.56,2.54-1.52,4.16,0,.17.01.34.03.5-.04-.07-.07-.15-.08-.21-.49-1.88-.97-3.36-2.3-3.96-1.34-.6-2.83.04-4.49.88-.11.05-.22.11-.34.16-.52.23-1.17.51-1.64,1.12-.38.49-.79.63-1.9.64-2.47.02-4.05,1.39-4.22,3.66-.08,1.05-.66,1.58-2.02,2.44-.28.17-.64.32-1.02.48-.65.26-1.39.56-2.02,1.11-.42.37-.58.51-1.44-.23l-1.19-1.01-.96,1.22c-.56.72-1.11,1.42-1.65,2.12-1.18,1.54-2.3,2.99-3.51,4.37-1.84,2.1-3.92,4.96-4.34,8.83-2.04.67-2.51,2.96-2.71,4-.2.99-.59,1.96-.99,3-.73,1.86-1.55,3.95-1.29,6.34-.96.96-.94,2.15-.93,2.91,0,.18,0,.36,0,.53l-.02.24c-.01.17-.03.44-.06.52-1.16,2.77-1.28,7.29-.29,10.38v.06s-.06.22-.06.22c-.05.29-.12.58-.19.87-.16.67-.35,1.43-.35,2.24-.04,8.79-.03,17.65-.01,25.26v.44c-.03,1.01-.05,2.39.98,3.68.02.21-.03.64-.15.92-1.18,2.78-1.18,6.37-.07,8.69-.08.37-.17.71-.24,1.04-.25,1.05-.47,1.95-.49,2.93-.08,3.7-.06,7.45-.03,11.08v1.21s0,.43,0,.43c-.01,1.03-.03,2.31.89,3.58-.02.22-.1.61-.16.85-.04.18-.08.37-.11.54-.01.02-.02.03-.04.05-.2.28-.54.75-.54,1.4-.03,3.16-.03,6.33-.02,9.49v1.55c0,.3,0,1.01.57,1.54.42.4.44.85.4,1.95-.01.41-.03.83,0,1.28.01.15,0,.31,0,.48-.02.7-.04,1.65.63,2.37.39.42.4.83.34,1.87,0,.04,0,.07,0,.11l-1.96.64v4.64c0,4.61,0,9.18.02,13.76,0,.77.34,1.44.62,2.01.54,1.09.48,3.56-.12,4.81-.23.48-.5,1.22-.51,2.05-.02,3.4-.02,6.8-.02,10.16v7.16c0,1.72,0,3.44,0,5.16.01,4.28.03,8.71-.04,13.06-.03,2.14.1,4.36,1.86,6.12l-1.72,4.64.13.46c.12.42.24.81.37,1.18.19.58.36,1.09.37,1.47.06,3.34.05,6.74.03,10.03v2.18s0,.32,0,.32c0,.08,0,.2,0,.29-1.09,1.22-1.04,2.65-1,3.62,0,.22.02.45.01.67-.03,1.17-.03,2.34-.02,3.51v1.29c0,.18,0,.37,0,.56-.02,1.1-.05,2.52.81,3.72-1.04,2.06-1,2.91-.66,6.39l.07.67.54.4c.35.26.69.5,1.02.72.66.46,1.23.86,1.73,1.3s.97.93,1.46,1.44c.55.57,1.13,1.17,1.76,1.72.69.6,1.84,1.6,3.17,1.66.35.01.7.05,1.06.09.51.05,1.05.1,1.61.1.85,0,1.73-.13,2.55-.58,3.43.92,6.47.68,9.2-.73l.28,1.11,6.54-1.6-.15-1.31c-.02-.17-.02-.36-.02-.56,0-.72,0-1.71-.63-2.49-.25-.31-.28-.59-.32-1.26,0-.16-.02-.31-.03-.47-.03-.28,0-.61.02-.97.06-.9.13-2.06-.52-3.17.68-.99.58-2.11.53-2.78-.02-.2-.04-.39-.03-.58.04-1.27.04-2.54.03-3.77,0-.84,0-1.67,0-2.51v-.31c0-.15,0-.39.01-.54,1-1.2.99-2.53.97-3.5v-.39c.01-2.09.02-4.19,0-6.28v-.35c0-1.05,0-2.36-.91-3.68-.01-.25.1-.85.33-1.34.46-.98.96-2.49-.12-4.23l-.26-.41c-.32-.5-.62-.97-.74-1.41-.48-1.75-.73-2.95-.02-3.72,2.14-2.3,1.88-4.87,1.68-6.93-.08-.8-.16-1.56-.1-2.27l.06-.82-.65-.49c-.24-.18-.29-.32-.26-1.28.01-.37.02-.74-.01-1.11,0-.11-.01-.23-.02-.35-.02-.6-.05-1.42-.58-2.1-.68-.89-.63-1.31.23-2.07,1.85-1.62,1.86-4.03.91-5.57-.35-.57-.41-1.13-.5-1.89-.03-.26-.06-.53-.1-.8-.09-.62-.33-1.15-.56-1.63,1.31-2.11,1.83-4.12,1.63-6.26-.05-.57-.04-1.17-.03-1.81.01-.54.02-1.08,0-1.62-.04-.82-.14-1.68-.61-2.4-.95-1.46-.63-3.19-.2-4.39.67-1.84.78-3.5.81-5.03.04-2.65.04-5.44,0-8.3,0-.56.14-.9.58-1.35.66-.68,1.25-.92,2.17-.88l.42.02c1.25.08,2.9.17,4.36-.76,1.29.47,2.76.88,4.42.81,1.87-.08,3.8-.06,5.66-.05,1.49.01,3.03.02,4.56-.01.35,0,.71.02,1.07.04,1.29.09,3.01.2,4.52-1.02.1,0,.19.01.28.01.28,0,.55,0,.83-.01,1.24-.04,1.79,0,2.25.49l.5.54.73-.07c.71-.06,1.49-.01,2.31.05,2.15.15,4.78.33,6.89-1.83,2.26,1.46,4.75,2.09,7.42,1.87.35-.03.63.01.74.12.12.1.25.42.27,1l.02.62c.06,1.63.11,3.17-.03,4.68-.22,2.33.49,4.31,1.18,6.23.14.39.27.76.4,1.13-1.52,1.47-1.65,3.47-1.57,5.12.06,1.3.05,2.65.03,3.95,0,.75-.01,1.49,0,2.24,0,.28,0,.55-.02.83-.04,1.15-.08,2.53.66,3.6-.06.32-.12.63-.18.93-.22,1.1-.43,2.14-.43,3.22-.06,9.12-.04,18.38-.02,27.34v.67s0,.4,0,.4c-.02.97-.04,2.29.96,3.55.04.13.07.38.05.54-1.04,1.23-1.03,2.54-1.01,3.51v.34c0,10.67,0,21.33,0,32,0,.52.03,1.03.07,1.61.02.27.03.56.05.87l.1,2.02,1.9-.68c.24-.09.58.02,1.1.21.66.23,1.57.54,2.58.31.92.6,1.93.59,2.5.59,2.27-.02,4.55-.02,6.82-.02,1.81,0,3.62,0,5.43,0h.24c.75.01,1.79.02,2.51-.73.41-.43.52-.49,1.8.11l1.08.5.69-.43c2.4-1.52,3.47-3.72,3.18-6.54-.04-.34.14-.88.31-1.41.09-.28.18-.56.25-.83.14-.51.3-1.02.47-1.53.37-1.15.76-2.33.87-3.61.2-2.29.2-4.75.02-7.96-.05-.8-.3-1.53-.52-2.17-.18-.54-.36-1.04-.36-1.43,0-.38.17-.87.35-1.39.24-.69.51-1.47.52-2.33.09-6.91.09-13.95,0-21.53,0-.81-.29-1.51-.54-2.12-.16-.39-.32-.79-.32-1.04s.16-.63.32-1.02c.26-.65.56-1.39.53-2.25-.03-.74.02-1.51.07-2.32.13-2.08.28-4.42-.95-6.66.03-.58-.01-1.15-.05-1.66-.09-1.23-.12-1.96.39-2.63.61-.81.6-1.85.59-2.6v-.23c.01-15.5.01-31,0-46.5,0-.72,0-1.92-.67-2.8-.37-.48-.46-.77.05-1.88,1.09-2.37,1.07-4.87-.04-7.03ZM736.69,114.99c.07,1.3.14,2.52.06,3.72-.06.92.37,1.67.77,2.33-1.38,2.36-1.05,4.21-.31,5.51-.03.15-.07.29-.1.43-.19.76-.38,1.55-.4,2.39-.08,2.91-.08,5.88-.01,8.82.02.8-.43,1.59-1.17,2.04-.77.48-1.67.5-2.48.08-1.4-.74-2.61-.81-3.72-.81-6.05-.01-12.24-.02-18.64-.02-6.76,0-13.77,0-21.11.02-1.2.02-1.72-.1-2.21-.67-.55-.65-.73-1.06-.7-1.63.06-1.48.06-3.07,0-4.86,0-.22,0-.44,0-.66,0-1.13.01-2.54-1.02-3.94-.16-.27-.17-1.14-.02-1.41,1.17-1.8,1.09-3.62,1.02-5.22-.02-.53-.05-1.08-.03-1.61l.1-2.81-2.39,1.48c-.23.14-.32.2-.77,0l.26-.26c2.03-2.06,2.96-4.32,2.87-6.89-.06-1.6-.11-3.49,0-5.35.21-3.49-.92-6.44-1.93-8.62-.44-.96-.67-2.07-.91-3.25-.03-.16-.06-.31-.09-.47,2.72-1.42,3.35-2.92,2.86-6.16-.12-.78-.43-1.82-1.26-2.35-.71-.45-.75-.97-.71-2.46v-.23c.02-.57.02-1.13.02-1.71l1.86-.59v-1.09c0-.38.04-.75.08-1.13.12-1.25.26-2.76-.62-4.27.12-.04.24-.08.34-.12.09-.03.18-.07.27-.1l1.14-.36-.1-1.19c-.05-.56-.02-1.15.01-1.77.08-1.59.18-3.39-1.05-5.16,0-.16.04-.4.07-.47.8-1.06.88-2.16.93-2.97.02-.25.03-.5.08-.75.23-1.28.56-2.53.92-3.86l.17-.65c.59-.42,1.18-.83,1.78-1.24,1.22-.84,2.47-1.71,3.68-2.64.92-.7,1.73-1.64,2.28-2.62.57-1.02.9-.99,1.29-.95,1.37.14,2.41-.38,3.33-.84l.25-.12c2.47-1.21,5.12-2.36,8.04-2.05.6.06,1.17.05,1.73.03.23,0,.47-.01.71-.01h1.1l.65-2.06c.17-.03.33-.06.36-.07,1.25,1.63,2.88,2.34,4.94,2.16.05,0,.24.07.45.21,1,.66,2.06,1.13,3.09,1.58,1.49.65,2.89,1.27,3.88,2.39.44.49,1.13.77,1.75.69,1.03-.12,1.26.16,1.97,1.7.22.48.45.98.76,1.45.06.09.11.22.17.34.24.53.69,1.49,1.76,1.49h.01c.02.07.04.14.05.2.08.28.17.64.36,1-.3,1.51.56,2.58,1.09,3.12,0,.14,0,.28,0,.4,0,.71,0,1.45.46,2.13.9,1.31,1.85,2.54,2.86,3.84.19.24.38.49.57.73-.03.07-.07.14-.1.21-.47.96-1,2.04-1.26,3.26-.25,1.19-.2,2.36-.15,3.5.02.43.04.87.04,1.3v23.76c-.01,1.08-.03,2.71,1.59,3.88.97.7.64,1.75.33,2.21-2.27,3.34-2.07,6.93-1.9,10.09Z"/><path class="cls-1" d="M135.23,67.95c-.27-.81-.52-1.68-.56-2.62-.01-.32.02-.7.05-1.1.08-1.08.18-2.29-.48-3.32-.46-.73-.52-1.63-.59-2.68-.08-1.21-.16-2.55-.92-3.81.12-1.83-.8-3.32-1.49-4.44l-.09-.15c-.22-.36-.47-.7-.72-1.04-.66-.89-1-1.39-.9-2.09l.11-1.06-.94-.5c-.05-.09-.07-.43-.08-.66-.04-.6-.09-1.42-.59-2.17-.51-.77-.95-1.65-1.42-2.57-.22-.44-.45-.89-.69-1.35l-.4-.75-1.72-.08.92-.44-1.05-1.45c-.18-.25-.35-.5-.5-.73-.36-.53-.7-1.03-1.14-1.5-.66-.7-1.34-1.38-2.02-2.05-.51-.5-1.02-1-1.52-1.52-1.56-1.61-4.05-3.72-7.78-3.37-.39.04-.83-.02-.88-.2-.61-2.11-2.08-3.49-4.49-4.24-.42-.13-.88-.37-.9-.65l-.05-.95-.88-.36c-.4-.17-.77-.34-1.12-.5-.85-.4-1.65-.78-2.58-.92-1.35-.21-2.7-.19-4-.17h-.74c-1.05.03-1.23-.09-1.39-.33-1.15-1.73-2.96-1.7-3.92-1.68-.29,0-.61.03-.92.05-.44.03-1.18.09-1.37,0-1.71-1.18-3.45-1.1-4.85-1.04h-.35c-.43.03-.9,0-1.4-.03-1.47-.09-3.26-.2-4.9.94-.02,0-.04,0-.05,0-1.79,0-2.92,1.2-3.69,2.02-.13.14-.26.28-.39.41-.71.71-1.42,1.42-2.11,2.11-.04-.21-.05-.51-.05-.95,0-.76,0-1.7-.49-2.56l-.38-.66-.76-.09c-3.64-.41-4.95.09-6.27,2.79-.09,0-.17,0-.26.01-.86.04-1.66.07-2.39-.06-2.23-.41-4.08.2-5.63.8-1.94.75-3.25,2.13-4.4,3.35-.39.42-.79.83-1.2,1.22-.61.57-.87.71-1.34.71-3.08.02-5.64,1.5-7.41,4.28-.69,1.09-1.2,2.25-1.69,3.37-.19.43-.38.87-.58,1.3l-2.06.25-1.39,2.27c-.74,1.21-1.45,2.38-2.17,3.52l-.24.38c-.57.9-1.11,1.75-1.74,2.48l-.12.14c-1.37,1.58-1.65,2.36-.96,3.86-2.5,2.47-3.72,5.6-3.52,9.12l.04.76,2.45,1.59c-.7,1.74-1.43,1.96-2.61,1.75l-1.66-.3-.11,1.68c-.02.32-.05.63-.08.93-.13,1.47-.28,3.1.51,4.65-1.02,1.68-.49,3.19-.01,4.03-.89,1.72-.72,3.5-.58,4.97.06.66.12,1.28.09,1.85-.07,1.28.2,2.52.43,3.62.07.35.15.69.21,1.03-.06.29-.13.58-.2.86-.22.92-.44,1.86-.47,2.88-.05,1.72-.04,3.46-.03,5.14,0,1.76.02,3.58-.03,5.35-.06,2.04-.15,4.73,1.78,6.87-.13.15-.27.3-.41.45-1.97,2.18-1.9,6.02.15,7.91.32.3.48.55.49,1.04l-1.97.64v3.1c0,2.12,0,4.2.01,6.29,0,.5.01,1.68.87,2.35.1.08.13.1.11.8,0,.19-.01.38,0,.57.03,1.51.03,3.08,0,4.72,0,.39-.02.87-.11,1.09-1.48,3.32-1.26,5.25.94,7.77-.06.27-.12.54-.17.79-.2.92-.37,1.72-.6,2.47-.47,1.5-.3,2.85-.15,4.16l.07.57c.2,1.71.43,3.64-.1,4.91-.73,1.73-.78,3.27-.83,4.76v.28c-.05,1.02-.04,2.04-.03,3.03,0,.91.02,1.82-.01,2.73-.04,1.38.13,3.11,1.89,4.34.12.08.18.12.13.64l-2,.69v1.07c0,1.2,0,2.38-.01,3.56-.01,3.06-.03,6.23.06,9.33.02.82.29,1.55.53,2.19.18.47.34.91.34,1.22s-.17.73-.34,1.19c-.25.65-.53,1.38-.54,2.21-.09,6.72-.06,13.47-.02,19.78,0,.66.21,1.23.38,1.7.09.26.19.53.2.68.03.46.08.93.13,1.41.14,1.36.27,2.64-.02,3.69-.73,2.65-.96,6.75.01,9.45.2.56.1,1.46,0,2.32l-.07.61c-.01.15-.12.41-.22.67-.19.47-.42,1.05-.42,1.73-.06,5.04-.04,10.21-.02,14.77,0,.83.06,1.72.41,2.54.81,1.87.8,3.4-.03,5.29-.24.54-.37,1.17-.37,1.8v1.43c-.02,3.47-.04,7.06.03,10.6.02,1.07.6,2.54,1.64,3.15l.43.26c1.33.8,2.83,1.68,4.91,1.62,2.71-.1,5.49-.08,8.18-.06,1.09,0,2.17.02,3.26.02.18-.01.44,0,.67-.01,1.33-.04,1.7.02,2.03.52l.91,1.38,1.29-1.04c1.55-1.25,1.75-1.07,2.36-.53.8.7,1.86.67,2.71.64.27,0,.54-.02.8,0l1.62.13v-7.4l-1.47-.47c.06-.09.13-.17.19-.23.98-.97,1.43-2.09,1.42-3.52-.01-1.88-.01-3.76,0-5.64,0-2.79,0-5.58-.04-8.37-.01-.81-.28-1.53-.53-2.23,0-.02-.01-.03-.02-.05.3-.41.48-.85.52-1.33.07-.75-.18-1.49-.76-2.2,0-.11,0-.33.06-.72.06-.36.17-.76.29-1.18.2-.7.43-1.5.44-2.36.03-3.07.03-6.14.02-9.21,0-3.7,0-7.52.05-11.27.02-1.43.07-4.57-2.99-5.75v-.16s2.95-.35,2.95-.35v-3.8c0-1.67,0-3.34,0-5.01,0-4.33-.02-8.82.04-13.22.02-1.32-.11-2.77-.97-4.02l1.04-.29-.12-1.25c-.06-.65-.02-1.35.02-2.08.1-1.85.22-4.07-1.41-5.95,1.53-1.74,1.47-3.9,1.43-5.58-.02-.74.17-1.32.57-1.73.43-.45,1.12-.7,1.98-.71,1.3-.02,2.6-.01,3.89,0h2.89s.56-1.95.56-1.95c.37-.02.6.12,1.2.47l.18.11c.9.53,3.51,1.06,4.51,1.06.46.03.91-.12,1.37-.35,1.11-.56,2.21-1.13,3.27-1.68l.51-.26c.44.15.89.33,1.36.51,1.44.57,3.06,1.22,4.97,1.09.47-.03.99,0,1.54.03,1.43.09,3.18.19,4.81-.9.03.01.06.02.09.03l.11.04c.19.06.38.15.57.24.46.21,1.03.48,1.7.54.83.08,1.65.07,2.43.05.47,0,.94-.02,1.41,0,.19,0,.4,0,.61,0,.2,0,.51-.01.69,0,1.13.99,2.37.97,3.21.98.14,0,.28,0,.41,0,.63.01,1.26.01,1.89,0,.62,0,1.24,0,1.86,0,1.24.03,1.34.07,1.37,1.45.02.62.01,1.25,0,1.87,0,.71-.01,1.43.01,2.14v.46c.03,1.1.05,2.46.98,3.85.16.3.1,1.28-.14,1.68-.82,1.33-.83,2.53-.83,3.59-.02,3.77-.02,7.54-.02,11.3v11.8s1.72-.25,1.72-.25c.14-.02.24-.02.3-.02.05,0,.07,0,.08,0,.09.1.22.45.31.69.06.16.13.34.21.52-2.24,3.34-3.12,7.19-2.61,11.46.01.09,0,.18,0,.28v9.46s1.02.33,1.02.33c-.57.75-1.1,1.69-1.07,3.03.07,4.49.07,9.06.07,13.49,0,2.83,0,5.66.01,8.5,0,.83.29,1.56.53,2.2l.15.39c.2.54.46,1.02.72,1.49.75,1.35.78,1.62.26,2.25-.52.63-.58,1.72.14,2.33.18.15.2.42.2,1.2,0,.9-.01,2.24,1,3.33,0,.21-.05.52-.11.63-1.26,1.91-1,3.77-.77,5.4.04.29.08.59.12.89l.16,1.43,1.43-.1c.46-.03.91-.03,1.36-.04,1.13,0,2.3-.02,3.42-.44.26-.1.51-.22.74-.33.07-.03.14-.07.22-.1,0,0,0,.01.01.02.63.85,1.69.83,2.39.82h.24c1,0,2,0,3.01,0,1.71,0,3.48-.02,5.21.03,1.92.07,3.33-.8,4.33-2.62.08-.15.17-.3.25-.45,1.15,1.53,2.69,3.08,5.41,2.92l1.35-.06.08-1.35c.02-.26.03-.51.05-.75.04-.55.08-1.08.08-1.6,0-2.89,0-5.77,0-8.66,0-6.03,0-12.05.03-18.08.02-2.68-1.23-4.67-2.32-6.11-.19-.25-.39-.49-.6-.72.21-.24.41-.47.61-.7,2.75-3.06,2.44-6.67,2.17-9.86l-.06-.67-.54-.4c-.22-.17-.26-.34-.27-1.19,0-.32-.01-.65-.05-.97-.08-.69-.39-1.25-.64-1.7-.06-.1-.12-.21-.17-.31-.39-.78-.2-2.18.23-2.58,1.13-1.05,1.65-2.32,1.63-3.98-.02-2.2-.02-4.4-.02-6.59,0-2.64,0-5.27-.03-7.91,0-.67-.23-1.24-.41-1.7-.09-.24-.2-.51-.21-.64-.1-1.56-.09-3.13,0-4.65.01-.21.12-.51.23-.83.18-.52.38-1.11.39-1.8.05-6.38.05-12.86,0-19.27,0-.85-.24-1.65-.43-2.29-.04-.12-.07-.25-.1-.36.05-.21.1-.41.15-.61.19-.76.38-1.54.39-2.4v-2.4c.05-8.48.09-17.25-.03-25.87-.03-1.97-.39-3.91-.73-5.78-.13-.7-.26-1.4-.37-2.1-.02-.1-.04-.19-.07-.28l.75-.22.19-.87c.78-3.55.19-6.84-.38-10.02-.15-.85-.31-1.7-.43-2.55-.08-.55-.37-.95-.6-1.27-.63-.92-.66-2.08-.09-3.56.94-2.42,1.91-4.91,1.8-7.84-.09-2.24-.07-4.54-.05-6.76,0-1.23.02-2.46.01-3.69,0-1.05-.23-2.05-.71-3.15-.21-.49-.1-1.43,0-2.27.03-.27.06-.54.09-.8.02-.18.11-.44.21-.72.16-.46.37-1.03.39-1.67.08-2.95.08-5.84,0-8.58-.02-.81-.23-1.56-.44-2.28-.03-.11-.06-.23-.1-.35.97-1.74,1.02-3.96.13-6.63ZM103.7,80.55l.03.49c.03.6.32,1.04.49,1.3.02.03.04.05.05.08.04.2.08.4.13.6.07.29.18.77.17.96-1.31,2.6-1.31,5.14-.01,7.98.48,1.04.28,2.09-.57,3.02l-.79.87.65.98c1.02,1.53,1.1,2.51.3,3.88-1.06,1.8-.92,4.31.33,6.12.3.43.34.81.25.91-1.07,1.2-1.05,2.45-1.04,3.37,0,.13,0,.26,0,.39-.05,2.74-.05,4.84,0,6.81,0,.28,0,.56-.01.84-.04,1.17-.1,2.76,1.05,4.21,0,.17-.03.44-.08.54-1.68,2.87-.94,5.33-.1,7.15.36.78.38,2.12.04,2.76-.82,1.54-.86,2.94-.91,4.17-.04,1.1-.17,1.34-.18,1.36-.04.02-.27.15-1.3.17-.39,0-.79,0-1.18,0-.62,0-1.25-.01-1.87.02-1.47.07-2.68.31-3.93.77-.96.35-2.81.8-4.46-.15-.88-.51-1.91-.62-2.62-.62-6.25-.03-12.5,0-18.74-.03-1.49.03-2.67.46-3.72,1.48-.91.88-1.25.87-2.13-.04-1.22-1.25-2.53-1.44-3.67-1.44h-.09c-1.5.01-3.01,0-4.51-.03h-.82c-.83-1.37-.81-2.93-.79-4.71.01-.74.02-1.5-.03-2.26-.02-.36.01-.77.05-1.21.1-1.2.23-2.8-.87-4.23.99-1.31.92-2.78.87-3.88-.01-.24-.02-.48-.02-.72.02-9.69.02-19.2,0-28.25,0-1.42-.25-2.7-.76-4.05-.45-1.19-.46-2.98-.02-4.36,1.34-4.15,1.28-6.15-1.81-9.3l.46-.91c.86-1.71,1.71-3.4,2.55-5.1.2-.39.39-.82.48-1.32.13-.71.26-1.42.38-2.13.22-1.24.44-2.53.72-3.75.1-.44.29-.91.48-1.41.32-.81.68-1.72.74-2.72.12-1.82,1.19-3.12,2.43-4.62.22-.27.44-.53.65-.8.11-.14.24-.28.36-.41.36-.4.77-.85,1.05-1.45.88-1.89,2.39-2.95,4.88-3.42.54-.1.96-.34,1.3-.53.11-.06.22-.13.34-.18,1.45-.63,2.76-1.09,4.12-1.43,2.12-.53,3.81-.82,5.46-.94.78-.06,1.28-.55,1.64-1.02.41.08.86.14,1.34.12,1.48-.06,1.98.09,2.39.73.52.82,1.54,1.22,2.26,1.24.72.02,1.46.24,2.24.48.47.14.94.28,1.42.38,1.99.44,3.6,1.38,5.07,2.97,1.14,1.23,2.63,2.47,5.07,2.28.24-.02.65-.05.75.96.04.43.04.84,0,1.22-.19,2.09.53,3.88,1.17,5.46.18.46.37.92.53,1.39.1.3.21.59.32.89.45,1.24.88,2.41.89,3.49.04,2.51.88,4.31,2.62,5.67.11.09.24.23.37.39-.08.15-.17.29-.25.4-1.92,2.62-1.76,5.54-1.62,8.12Z"/><path class="cls-1" d="M275.25,215.96c-.36-.95-.54-1.75-.6-2.6-.04-.48-.11-1.11-.39-1.71-1.02-2.18-1.01-4.3.02-6.5.71-1.52,1.69-3.6,1.4-6.04-.05-.39-.03-.84-.02-1.31.02-.53.04-1.08-.02-1.67-.08-.76-.25-1.45-.42-2.13-.04-.15-.07-.3-.11-.44.04-.14.08-.29.12-.43.19-.67.41-1.43.42-2.25.06-4.78.06-9.5,0-14.04,0-.28.02-.56.04-.84.08-1.04.19-2.41-.7-3.67,1.22-3.59,1.04-5.51-.89-7.88.44-.76.89-1.54,1.15-2.46.35-1.24.73-3.03-.05-4.31-.74-1.22-.64-2.55-.52-4.09.06-.8.13-1.61.08-2.46,1.12-1.8,1-3.74.91-5.33-.03-.51-.06-1.01-.05-1.51.02-.85-.21-1.63-.43-2.38-.04-.13-.08-.26-.11-.39,1.18-2.22.89-4.55-.86-6.95.12-.33.24-.66.36-.98.48-1.28.99-2.61,1.01-4.02.14-9.26.09-18.68.05-27.78v-1.49c-.01-.82-.22-1.56-.45-2.33-.03-.11-.06-.22-.1-.33.46-.73.67-1.84-.2-3.37-.67-1.18-.33-2.69.07-3.74.27-.7.6-1.56.67-2.5.09-1.28.06-2.54.03-3.77v-.13c0-.18,0-.36,0-.54,0-1.06,0-2.36-.9-3.68,0-.17.07-.61.39-1.51.54-1.52,1.12-3.8-.21-6.02-.57-.95-1.24-1.82-1.83-2.59-.04-.05-.08-.1-.11-.15.06-.1.12-.2.17-.3.48-.85.94-1.65,1.18-2.59.3-1.19.14-2.41,0-3.48l-.03-.2c-.07-.53-.25-.97-.4-1.37-.08-.2-.2-.5-.21-.6.21-3.29-1.02-6.07-2.19-8.43-.41-.82-.89-1.55-1.37-2.26-.36-.54-.7-1.05-.99-1.58-.29-.52-.55-1.05-.81-1.58-.8-1.6-1.68-3.38-3.19-4.8l.8-.99-.42-.86c-.13-.27-.24-.53-.35-.8-.29-.71-.59-1.44-1.17-2.07-.31-.34-.61-.69-.92-1.05-1.27-1.46-2.58-2.98-4.35-3.83-1.38-.66-2.87-1.25-4.32-1.83l-.53-.21c-.13-.05-.23-.11-.3-.15-.99-3.02-3.14-5.1-6.38-6.2-.03-.03-.07-.06-.1-.1-.19-.17-.44-.41-.8-.59l-.69-.35c-1.23-.62-2.5-1.27-3.82-1.81-.6-.25-1.2-.39-1.78-.52-.69-.16-1.35-.32-1.72-.6-3.08-2.31-5.17,0-5.85.76-.26.29-.65.58-1.28.19-.22-.13-.5-.59-.7-.93-.15-.25-.29-.48-.43-.66l-.48-.64-5,.26-.52-1.8-1.61-.11c-.44-.04-.87-.07-1.3-.07h-12.63c-9.62,0-19.24,0-28.86-.03-1.34.01-3,.2-4.26,1.84-.4.52-.88.33-1.04.21-1.72-1.31-3.39-1.06-4.61-.88l-1.24.17-.33.79c-.11.26-.19.54-.27.8-.03.11-.08.25-.11.35-1.68,1.27-1.96,3.04-2.18,4.47-.13.86-.25,1.6-.62,2.11l-.41.56.16.68c.26,1.11-.26,2.24-.82,3.44-.16.33-.31.66-.44.98-.95,2.28-.94,4.18.09,6.01-.92,1.45-.91,3.03-.9,4.25.03,3.35.03,6.7.03,10.05,0,2.06,0,4.13,0,6.19,0,1,.27,1.91.51,2.7l.15.49c.44,1.56.48,3.27.09,4.45-.37,1.14-.74,2.37-.74,3.73-.02,7.25-.01,14.5,0,21.75,0,.53.03,1.06.06,1.6l.11,2.2,1.48-.05c.44-.02.44-.02.78.79.12.29.27.63.47.97l-.11.16c-.68,1-1.33,1.95-1.97,2.9l-.1.15c-.29.42-.74,1.05-.67,1.88.04.42,0,.89-.04,1.39-.1,1.3-.22,2.91.87,4.49-.01.22-.1.62-.15.87-.04.18-.07.35-.11.52,0,.01-.02.03-.03.04-.22.29-.62.84-.54,1.6.08.7.01,1.46-.05,2.27-.15,1.77-.31,3.78.95,5.76,0,.22-.1.64-.16.9-.03.13-.06.26-.08.39-.03.04-.06.08-.09.12-.23.32-.57.8-.59,1.48-.07,2.84-.04,5.66-.01,7.8.01.77.38,1.48.68,1.93.66.99.61,2.23.22,2.95-.89,1.64-.91,3.15-.92,4.49v.47c-.06,2.91-.1,6,.01,9.08.04,1.12.25,2.21.48,3.37.07.34.13.69.2,1.05-.73,1-1.11,2.46-.47,3.92l.19.43,2.14,1.33c-.12.31-.27.7-.35.79-2.3,1.69-2.26,3.97-2.23,5.8v.37c.02,1.1.02,2.19.02,3.29,0,.99,0,1.97.01,2.95,0,.37.09.68.16.9l.24,1.02,1.51.44c-.07.38-.15.73-.27.93-1.34,2.15-1.89,4.54-1.66,7.29.04.54.02,1.11,0,1.72-.05,1.45-.12,3.2.85,4.79-1.18,2.37-1.22,4.8-.12,7.58.61,1.53.59,3.16-.05,4.59-.87,1.92-1,6.27.09,8.42.41.82.42,1.63.02,2.5-.52,1.13-2.08,4.49.76,7.48l-1.49.43.02,1.15c0,.31-.02.62-.04.92-.08,1.19-.17,2.67,1.02,4.08.02.1.03.25.02.36-1.23,1.37-1.14,2.9-1.08,4.03.02.27.03.53.03.79-.06,2.63-.04,5.3-.02,7.88v1.16c.02,1.29.26,2.36.79,3.45.18.36.05,1.28-.04,1.96-.04.27-.07.53-.1.79-.01.1-.11.34-.19.53-.18.44-.41.98-.42,1.63-.07,4.91-.06,9.26,0,13.29.02,1.07.45,2.5,1.38,3.29.49.41.6.8.58,1.95-.02,1.5-.02,2.99-.01,4.55v3.54s5.73,0,5.73,0c5.37,0,10.45,0,15.59-.04.6,0,1.11-.22,1.54-.46.17.09.37.16.59.2,1.15.18,2.44.38,3.81.38,1.22,0,2.49-.16,3.75-.64.2-.08.4-.14.56-.19,1,.86,2.17.79,2.92.76.14,0,.27-.04.43-.02,8.75.02,17.5.01,26.25,0,.54,0,1.09-.04,1.61-.08.21-.02.42-.03.62-.04l1.11-.06.24-.99c1.64.61,3.45.54,4.96-.26.64-.34,1.37-.44,2.23-.56,1.13-.16,2.41-.34,3.62-1.14.15-.1.42-.2.7-.31.49-.19,1.09-.42,1.68-.85,1.25-.91,2.35-1.45,3.28-1.62l.33-.06c1.23-.21,2.5-.44,3.72-1.27.33-.22.64-.48.94-.74.41-.35.8-.67,1.14-.8,2.72-1,3.6-2.78,3.76-4.4,3.26-1.14,5.49-3.31,6.64-6.45.08-.21.13-.33.17-.42,2.54-1.07,3.75-3.2,4.82-5.08.33-.59.65-1.14.99-1.65,1.19-1.76,1.83-3.78,2.45-5.87.3-1.01.67-2,1.06-3.05.99-2.65,2.02-5.39,1.8-8.57.02-.08.05-.15.08-.23.06-.17.13-.35.17-.52.06-.22.14-.44.22-.67.25-.69.56-1.55.42-2.48-.08-.49.04-1.06.17-1.72.21-1.02.46-2.26,0-3.58.06-.1.12-.2.17-.29,1.1-1.97,1.21-4.37.32-6.76ZM244.23,163.46c.61,1.37.62,2.04.05,2.89-.59.87-.59,1.95-.59,2.75-.02,6.04-.04,11.94,0,17.76,0,.69.16,1.32.29,1.89.11.46.21.89.21,1.24,0,.34-.1.76-.21,1.2-.13.56-.29,1.19-.29,1.88-.03,5.67-.03,11.33-.03,17,0,3.41,0,6.83,0,10.24v.39c.01.87,0,1.27-.35,1.71-.74.91-.69,2.13-.64,3.12,0,.17.02.34.02.5v.19c.03,2.37.06,4.41-1.34,6.18-.69.87-.72,1.95-.75,3,0,.08,0,.17,0,.25-1.24.58-2,1.7-2.69,2.71l-.26.38c-1.98,2.86-4.13,4.74-6.58,5.75-.38.15-.74.35-1.11.55-.91.49-1.33.68-1.83.53l-.5-.15-.49.2c-2.98,1.21-6.11,1.07-9.42.92-1.46-.06-2.97-.13-4.47-.08-2.94.11-5.96.09-8.87.07-1.94-.01-3.88-.02-5.83,0-.81,0-1.57.2-2.37.39-.28.07-.58.14-.9.21-1.27-.27-1.83-1.07-1.64-4.2.13-2.17.1-4.29.07-6.53-.01-.96-.03-1.93-.03-2.91v-1.89l-.12.03v-8.47l-1.77-.52v-4.26l1.44-.42.2-.85c.02-.07.04-.14.06-.2.07-.23.16-.54.16-.91,0-.86.02-1.72.03-2.58.03-2.37.07-4.82-.07-7.25-.1-1.69-.85-3.3-1.5-4.51-.2-.37-.2-.6-.17-1.28v-.4c.03-.73.32-1.39.66-2.15.3-.67.61-1.37.76-2.19.42-2.26.66-4.71-.38-7.33-.52-1.33-.56-3.24-.08-4.44.87-2.16,1.5-4.87-.7-7.32.11-.22.19-.49.19-.79,0-.88.29-1.8.59-2.77.42-1.34.89-2.87.67-4.57-.08-.58-.19-1.23-.57-1.85.58-.87.59-2.01.59-2.63.02-11.14.03-24.33-.01-37.74,0-.68-.23-1.26-.41-1.73-.1-.25-.2-.51-.21-.66-.02-.28-.06-.57-.09-.87-.09-.77-.2-1.72,0-2.13,1-1.98.86-3.9.74-5.6-.03-.48-.07-.95-.07-1.42,0-.43,0-.87.02-1.3.04-1.57.09-3.35-.65-5.27-.42-1.08-.24-2.57-.05-4.16.08-.67.16-1.35.2-2,.01-.19.1-.46.19-.75.15-.47.33-1.01.34-1.63.06-3.04.04-6.12.02-9.09v-.19s0-.34,0-.34c.02-.81.04-2.01-.94-3.1-.02-.14-.02-.36-.03-.51,0-.21-.01-.42-.03-.61-.02-.21-.03-.42-.03-.63-.04-.97-.08-2.18-1-3.41-.19-.25-.13-.71.33-1.11,2.47-2.14,1.8-4.27.82-5.66-.09-.17-.13-.67-.08-.88.98-1.41.97-2.82.95-3.96v-.42s0-2.24,0-2.24c.02-5.66.04-11.52-.03-17.28-.01-1.07.25-1.68.97-2.24.19-.15.48-.38.52-.41,0,0,.15.02.51.24,1.79,1.07,4.13,1.12,6.96.16.83-.28,1.49-.32,1.59-.32,1.08.72,2.04.79,2.85.79h1.69c4.37.03,8.89.06,13.34-.03.97-.02,1.84-.34,2.68-.65.12-.04.24-.09.37-.14.06.04.13.09.19.14.71.51,1.53,1.09,2.42,1.57.58.31,1.18.49,1.71.64.4.12.78.23,1.08.38,1.23.62,2.5,1.26,3.5,2.08.18.14.34.3.51.45.72.65,1.71,1.54,3.13,1.64,0,.07,0,.12,0,.18-.09,1.75.68,2.96,1.44,3.91.49.61.85,1.43,1.23,2.29.16.37.32.74.49,1.09.19.4.35.81.52,1.22.41,1.03.83,2.09,1.6,3,.57.69.77,1.25.75,2.13-.05,2.68-.05,5.15,0,7.57.02.71.16,1.35.33,2.09.05.21.1.43.15.66-.2.41-.45.99-.46,1.67-.04,3.9-.04,7.73-.03,11.79v5.9s.02,0,.02,0v3.1c-.02,5.84-.04,11.89.01,17.84,0,.71.27,1.33.47,1.82.09.22.24.55.24.67,0,.13-.14.47-.24.71-.19.46-.42,1.03-.46,1.68-.05.8.14,1.54.33,2.26.04.17.09.35.13.54-.83,2.38-.81,5.08.08,7.82.47,1.44.39,2.15.33,2.27-.88,1.46-.89,2.8-.91,3.98v.31c-.04,2.12-.04,4.43,0,7.04.02,1.2.32,2.27.6,3.31l.1.35c.63,2.29.58,4.1-.14,5.7-1,2.21-1,4.76,0,7Z"/><path class="cls-1" d="M415.12,239.53c.04-.13.07-.27.11-.4.2-.72.4-1.46.41-2.26.06-6.15.08-11.32-.02-16.54-.02-.85-.29-1.62-.53-2.29-.18-.51-.35-1-.35-1.36,0-.44.18-.98.36-1.55.23-.72.5-1.54.51-2.43.09-7.01.06-14.13.03-21.02v-1.25c0-.72-.1-1.79-.55-2.77-.55-1.2-1.17-2.37-1.82-3.61-.08-.16-.17-.31-.25-.47.09-.06.18-.12.27-.18,2.1-1.39,2.91-3.67,2.24-6.25-.27-1.04-.57-2.28-.7-3.54-.03-.31.06-.74.15-1.13.05-.24.14-.47.23-.71.19-.54.41-1.16.43-1.88.06-2.62.04-5.28.03-7.85v-1.93c0-.09,0-.19,0-.3.03-.61.08-1.54-.59-2.21-.46-.46-.48-.95-.42-2.13.02-.36.04-.72.03-1.08-.05-2.42-.03-4.88,0-7.2v-.38c0-.2,0-.51.01-.68,1.05-1.27,1.01-2.65.97-3.67,0-.17-.01-.34-.01-.51.01-12.26.01-24.53,0-36.8v-12.41l-.65-.45c-.51-.35-1.03-.54-1.49-.71-.09-.03-.2-.07-.3-.12,1.2-1.35,1.33-2.04,1.46-4.63.02-.31.11-.69.21-1.09l.08-.31c.06-.25.15-.51.23-.76.2-.62.43-1.33.44-2.12.05-4.28.04-8.62.03-12.82v-2.45c0-.11,0-.24,0-.37.04-.74.1-1.74-.67-2.44-.46-.42-.52-.98-.59-2.01-.06-.91-.13-2.03-.74-3.11-.31-.55-.33-1.44-.36-2.38-.03-1.19-.07-2.54-.64-3.87-.17-.4-.3-.89-.43-1.41-.18-.71-.39-1.52-.76-2.3-.53-1.11-.98-2.24-1.46-3.44-.28-.7-.56-1.41-.86-2.11-.07-.16-.15-.29-.25-.41l.46-.21-5.07-7.16-1.45,1.01-2.15-4.03-3.92-1.75-1,.73c-.11-.17-.22-.33-.3-.49-.57-1.07-1.31-2.48-1.95-3.92-.63-1.43-1.69-3.09-4.21-3.18-.1-.01-.28-.1-.42-.18-.42-2-2.04-2.63-3.04-3.02l-.32-.13c-.46-.19-.93-.34-1.41-.49-1.18-.37-1.93-.63-2.47-1.33-.75-.97-2.1-.85-3-.77-1.76.16-3.3-.22-4.68-1.15l-.13-.09c-.34-.25-.85-.62-1.56-.62-1.42-.02-2.83-.29-4.31-.57-.87-.17-1.77-.34-2.69-.46-2.46-.32-4.96-.24-7.37-.17-.86.03-1.72.06-2.57.07-.95,0-1.93.1-2.73.65-1.59,1.1-3.38,1.52-5.83,1.35-1.21-.08-2.41-.05-3.58-.03l-.79.02c-1.17.02-2.15.37-3.04.73-.28.11-.56.21-.84.31-1.13.4-2.41.86-3.46,1.96-.05,0-.11,0-.17-.01-2-.22-3.53.7-4.77,1.43-.23.14-.46.27-.68.4-1.11.62-2.16,1.34-3.04,1.97-1.02.73-2.02,1.49-3.02,2.25l-.96.73c-.57.43-1.15.87-1.76,1.34l-2.01,1.54.59,1.28c-2.34.78-4.03,2.51-4.77,4.88-.66,2.12-1.65,3.78-3.09,5.21-.33.33-.53.69-.67.96-.03.06-.07.12-.1.18-1.02.14-1.49,1.12-1.8,1.76-1.82,3.8-3.64,7.88-4.18,12.42,0,.04-.04.11-.06.14-1.55,1.99-1.38,4.5-.53,6.11.66,1.26.62,2.56.57,4.07,0,.19-.01.38-.02.57l-1.83-.82v14.96l1.68.53c-.92,2.17-1.84,4.42-1.83,7.1.04,7.06.04,14.23.04,21.17,0,4.27,0,8.54,0,12.82,0,.23-.01.47-.02.7-.05,1.17-.12,2.76,1.1,4.18,0,.07.01.17,0,.24-1.32,1.76-1.19,3.59-1.08,5.07.05.66.09,1.29,0,1.83l-.22,1.31,2.11.62v.2l-1.92.62v1.09c0,.77,0,1.54,0,2.3.01,1.79.02,3.48-.03,5.2-.04,1.18-.1,3.27,1.5,4.91l-1.48.42v1.13c0,1.46,0,2.92-.01,4.38-.02,3.59-.03,7.3.05,10.95.01.44-.03.91-.08,1.42-.12,1.37-.28,3.03.65,4.62-.05.24-.12.48-.19.72-.18.64-.38,1.37-.4,2.16-.05,3.26-.04,6.57-.03,9.76v1.51c0,.26,0,.53,0,.79-.03,1.38-.07,3.02.84,4.55-.97,1.51-.87,3.14-.8,4.39.04.67.08,1.29-.03,1.81-.58,2.85.88,4.68,2.44,6.22-1.93,1.46-2.75,3.41-2.45,5.81.09.72.06,1.5.02,2.33-.08,1.73-.17,3.68.93,5.55-.03.57.02,1.12.06,1.62.1,1.22.13,1.89-.41,2.5-.61.69-.6,1.61-.58,2.21v.22c-.01,4.35-.02,8.84.01,13.27,0,.95.26,1.9.69,2.62.57.95,1.2,1.83,1.8,2.68.04.06.08.11.12.17-1.53,2.84-3.03,6.5-2.65,10.76.1,1.07.1,2.25,0,3.49-.28,3.6,1.26,5.08,2.95,5.63l.22,1.37c.3,1.81.58,3.55.89,5.29.39,2.17,1.79,3.33,4.04,3.37,3.03.04,6.23.04,9.79,0,.76,0,1.61-.25,2.33-.67.68-.39,1.34-.82,2-1.24.74-.47,1.44-.92,2.17-1.33l.43-.24c.5-.27,1.01-.56,1.51-.88-.37.66-.61,1.34-.82,1.95l-.81,2.33h6.11v-7.71l-1.79.97c.54-.78.99-1.71,1.24-2.9l.03-.15c.61-2.83,1.18-5.49-.2-8.51-.11-.25-.14-.72-.09-.91,1-1.37.99-2.77.99-3.9v-.25c0-9.75,0-19.5,0-29.25v-.23c0-1.03,0-2.3-.89-3.6-.03-.24.06-.85.29-1.43.84-2.14.69-4.19.55-6.17-.04-.59-.09-1.18-.1-1.76-.02-.82-.57-1.33-.87-1.6-.04-.04-.09-.08-.12-.11q-1.17-1.34-.05-2.67c1.63-1.94,1.65-3.72.05-5.3-.74-.73-.96-1.18-.93-1.88.03-.58-.17-1.07-.4-1.47.3-.33.59-.65.89-.92,1.28-1.15,2.52-3.25,1.16-6.73-.32-.81-.54-1.52-.6-2.31v-.2c-.04-.62-.09-1.56-.79-2.2-.18-.17-.24-.27-.18-.81l2.14-.75-.1-1.16c-.1-1.15-.07-2.31-.03-3.53.07-2.21.14-4.47-.65-6.72.43-.21.86-.48,1.19-.92.61-.82,1.35-.88,3-.83,1.12.04,2.13.04,3.11,0,1.3-.05,2.49-.15,3.87-.83.71-.35,2.13-.32,3.09.07,2.77,1.11,5.22,1.09,7.72-.04.03-.01.08-.02.13-.03.98.93,2.14.88,2.88.85.13,0,.27,0,.39,0,2.7.03,5.49.03,8.28,0,1.13-.01,2.17-.25,3.36-.76.9-.39,2.3-.41,3.07-.05,1.13.54,2.21.78,3.61.81l.61.02c1.39.04,2.84.07,4.28-.03,1.55-.12,1.95.31,2.27,1.31.63,1.99,1.59,4.45,3.56,6.38-.45.47-.92.95-1.37,1.46l-.17.18c-.47.51-1.11,1.21-1.14,2.17-.02.6-.08,1.22-.13,1.84-.18,2-.36,4.07.38,5.94.55,1.38.54,2.78.54,4.26,0,.85,0,1.72.1,2.63,0,.06,0,.11,0,.16-1.14,1.18-1.06,2.59-1.01,3.54.01.19.02.38.02.57,0,2.28,0,4.56,0,6.85.01,4.14.02,8.42-.07,12.62-.04,2.06.45,4.01,1.55,6.15.1.19.21.38.31.57-1.72,2.18-1.81,2.81-1.81,6.29v1.68c0,1.36-.01,2.73,0,4.09.02,1.2.13,2.5.85,3.93.4.79.4,2.15.11,2.63-1.01,1.68-.95,3.3-.9,4.6.02.45.03.88,0,1.28l-.08,1.7c0,.89,0,1.79.01,2.67.02,2.08.03,4.05-.04,6.04-.08,2.05.01,4.34,1.82,6.14-2.12,2.67-2.26,3.84-1.35,7.14l.27.98,1.01.11c.28.03.58.04.87.04.25,0,.62,0,.71.03,2.25,1.38,4.55,1.19,6.58,1.03.97-.08,1.88-.15,2.73-.06l.66.07.5-.44c.76-.67,1.62-.65,3.08-.56.63.04,1.29.08,1.97.03.16,0,.5.09.77.18l.37.11c.22.06.43.14.64.22.46.17.97.36,1.56.44,1.88.25,3.27-.65,4.38-1.37.1-.07.21-.13.3-.2l4.14,3.33v-3.13c0-.85.04-1.65.07-2.41.07-1.71.14-3.33-.2-4.92-.42-1.95-.24-3.72.02-5.67.3-2.33.23-4.69.16-6.97-.03-.83-.05-1.65-.06-2.48,0-.52-.11-.97-.23-1.45-.05-.2-.1-.41-.14-.64l-.35-1.8-.55.23c1.54-2.72,1.93-7.11.74-9.46ZM385.67,118.21c.03.15.03.41,0,.55-1.04,1.23-1.01,2.53-.99,3.48,0,.15,0,.29,0,.44-.01,1.91-.01,3.82-.01,5.73,0,2.42,0,4.84-.02,7.26,0,.48-.16,1.04-.32,1.63l-.1.37c-.35,1.32-.95,1.96-3.12,1.87-3.22-.16-6.48-.12-9.64-.08-1.06.01-2.12.03-3.18.03-.91,0-1.92.1-3.04.76-.55.32-1.56.39-1.83.25-1.36-.74-2.72-1.11-4.11-1.11s-2.68.34-4.06,1.03c-1.32-.99-2.9-.97-4.12-.95h-.41c-4.75.02-9.49.02-14.24.02-2.06,0-2.79-.71-2.8-2.7,0-1.61,0-3.21,0-4.82,0-1.89,0-3.79,0-5.68v-.33c.02-.8.04-1.91-.73-2.65-.17-.17-.23-.27-.25-.27.06-.19.44-.64.59-.81l.66-.76-.46-.9c-1.01-1.98-1.13-6.25-.23-8.3.26-.61.41-1.33.41-2.04.01-6.75,0-13.5,0-20.25,0-.41-.11-.73-.2-.98,0,0,0,0,0,0l.23-.05v-3.52c-.01-1.84-.02-3.7.01-5.56.03-1.53.09-2.72.61-4.01,1.01-2.51.8-4.98-.61-6.86.03-.03.08-.07.13-.11,1.35-1.07,1.97-2.47,1.89-4.25.01-.08.11-.31.18-.46.12-.27.25-.59.34-.95.07-.29.16-.59.25-.88.34-1.1.76-2.46.3-4.03-.37-1.26.08-2.38,1.55-3.87.93-.94,2.02-1.73,3.18-2.58.58-.42,1.16-.85,1.72-1.29.5-.4,1-.8,1.5-1.21.86-.7,1.67-1.37,2.52-1.98l.1-.07c.32-.23,1-.72,1.2-.76,3.71.42,6.51-1.22,9.21-2.8l.32-.19c.28.27.57.54.86.79l.15.14c.42.39,1.13,1.05,2.1.87.93-.18,1.87.12,2.95.47,1.03.33,2.21.71,3.47.66.14,0,.44.1.68.18.64.21,1.7.57,2.82.12.24.2.48.43.62.59.56.7,1.07,1.49,1.61,2.31.24.37.49.74.74,1.12l.83,1.23,1.58-1.04c.59,2.09,1.66,3.86,2.71,5.57.85,1.39,1.65,2.71,2.15,4.13l.26.72c.73,2,1.42,3.88,1,5.93l-.28,1.35,2.33.7c.09.54.05,1.16.02,1.85-.06,1.08-.12,2.33.3,3.59-.61.32-1.06.84-1.24,1.47-.23.79-.02,1.64.57,2.25.35.37.38.73.35,1.69,0,.28-.02.57,0,.85.02.59.01,1.18,0,1.77,0,.75-.01,1.51.02,2.26.05.99.26,1.83.62,2.5.54,1,.54,1.77,0,2.66-1.01,1.68-1.03,3.67-.05,5.31.6,1.01.61,1.83.04,2.94-.19.38-.62,1.36-.39,2.36.17.75.15,1.98-.07,3.45-.15,1.02-.12,2.01-.09,3.05.01.43.03.87.03,1.32v1.08l1.77.6v1.22l-1.77.59-.02,1.06c0,.27-.03.54-.05.8-.09,1.2-.21,2.69.94,4.15Z"/><path class="cls-1" d="M1161.82,164s.02-.04.02-.06c.06-.15.12-.3.17-.44.04-.1.09-.2.14-.3.19-.36.45-.86.46-1.48.04-1.63.04-3.25.03-4.68v-2.05s-.58-.45-.58-.45c-.21-.17-.42-.32-.62-.45.25-.12.51-.28.74-.5l.46-.44v-9.26c0-5.5.02-10.99-.02-16.49,0-.33.02-.67.05-1.02.09-1.29.21-3-.97-4.51.38-1.25.23-2.42.08-3.47-.08-.57-.15-1.1-.12-1.58.03-.43.15-.88.34-1.23.99-1.88.97-3.76-.07-5.29-.34-.51-.42-.86,0-1.71,1.12-2.3,1.05-4.52-.19-6.58-.61-1.02-.97-1.98-1.04-2.77-.19-2.19-.1-4.51-.02-6.55.01-.36.18-.83.39-1.09.91-1.12,1.8-2.46,1.5-3.92-.21-1.02-.93-1.75-1.77-2.32l1.12-.08.33-.9c.04-.1.07-.18.1-.24.1-.22.23-.53.23-.93.02-5.17.04-10.34.04-15.5v-.16c.01-.58.03-1.55-.71-2.18-.25-.21-.29-.4-.27-1.28,0-.31,0-.62-.01-.92-.03-.47-.01-.98,0-1.52.06-1.46.14-3.24-.99-4.89.01-.21.01-.49-.06-.78-.1-.39-.19-.78-.28-1.17-.3-1.28-.62-2.61-1.14-3.89-.45-1.11-1.62-1.69-2.46-2.11l-.16-.08c-.24-.12-.48-.2-.72-.25.12-.44.23-.86.34-1.28.03-.12.08-.24.12-.37.21-.58.52-1.47.09-2.32-.2-.39-.39-.79-.58-1.2-.98-2.06-2.09-4.39-4.58-5.82-.24-.14-.52-.45-.62-.71-.34-.82-.6-1.69-.88-2.61-.12-.4-.24-.8-.37-1.2l-.53-1.66-1.56.77c-.19.09-.38.2-.54.3-1.2-.49-2.42-1.02-3.69-1.58l-.08-.04.86-2.04-.5-.69c-.85-1.17-5.43-4.94-8.76-6.4l1.34-.6-4.73-.89c-2.11-.4-3.83-.87-5.33-1.86-.7-.47-1.51-.45-2.08.07-.01.01-.03.02-.04.03-.13-.07-.32-.21-.46-.31-.25-.18-.49-.35-.73-.48-2.72-1.48-5.13-1.52-7.34-.12-3-2.79-5.67-2.43-7.62-1.34-.52-.22-1.06-.46-1.67-.57-2.39-.46-4.31.54-6,1.43l-.32.17c-1.26.66-2.56.66-3.77.02-1.17-.62-2.75-1.15-4.55.21-.69.52-1.1.79-1.35.93-1.19-.5-2.25-.11-2.92.14-.21.08-.49.18-.61.19-1.1-.42-2.24.24-2.86.59-1.26.72-2.58,1.52-4.26,2.6-.84.54-1.67,1.1-2.57,1.71l-1.72,1.16-.24.78c-.38,0-.76,0-1.16.04-2.87.31-5.01,2.17-5.88,5.1-.22.75-.73,1.69-1.84,1.86-2.78.44-4.51,2.11-5.16,4.98-.31,1.39-.64,2.48-1.04,3.45-.07.17-.35.46-.68.64-2.03,1.12-2.89,2.67-2.59,4.7-1.97,1.62-2.68,3.9-3.32,5.94-.12.39-.25.79-.38,1.18-.26.75-.39,1.5-.51,2.22-.14.77-.26,1.5-.52,1.98-.8,1.53-.85,2.96-.9,4.22-.01.43-.03.87-.08,1.31-.1.83-.27,1.69-.41,2.44-.06.33-.13.64-.18.92l-.04.24.03.24c.08.56.19,1.1.29,1.62.19.94.36,1.74.25,2.38-.19,1.17.07,2.22.31,3.15.28,1.1.42,1.76.06,2.39-.51.91.05,1.75.3,2.11.04.06.08.12.11.16l1.19,2.36c-.1.17-.2.34-.3.51-.89,1.5-1.9,3.18-1.68,5.39-.06.12-.11.23-.14.35-.06.2-.14.4-.22.6-.23.59-.48,1.26-.53,2.02-.06.95-.05,1.9-.04,2.81,0,.74.02,1.48-.01,2.22-.09,2.11.93,3.66,2.87,4.35.41.15.74.32,1,.64-.33.27-.65.51-.97.65-2.06.94-3.04,2.55-2.9,4.79.06.97.04,1.98.03,2.96,0,.45-.01.89-.01,1.32v1.15l1.34.37c-.84,2.1-.86,4.28-.07,6.52l-1.27.3v3.86c.01,2.18.02,4.36-.01,6.54-.02,1.48.18,3.17,1.81,4.46.18.3.28,1.13.25,1.64l-2.03.59v3.4c0,2.43-.01,4.85.03,7.26,0,.63.3,1.11.49,1.42.03.04.05.08.08.13.08.88.08,1.65,0,2.36-.02.18-.11.44-.21.71-.17.47-.38,1.07-.38,1.74-.04,14.49-.03,28.84-.02,43.5,0,.12,0,.25-.01.38-.03.81-.07,1.91.72,2.65.41.38.42.59.1,1.77-.22.78-.48,1.76-.23,2.81-.02.12-.11.39-.18.57-.17.46-.37,1.03-.38,1.67-.04,6.34-.03,12.79-.03,19.03v1.99s0,.37,0,.37c-.02.89-.05,2.19,1,3.29,0,.01,0,.02,0,.03-.45,2.63,1.13,4.26,2.36,5.25.05.04.1.08.15.12-1.74,1.82-1.76,2.57-.61,5.28.02.07.02.15.02.22.02.25.05.59.18.95l.11.33c.2.63.45,1.42,1.11,2.01.52.46.7.91.73,1.75.05,1.74.47,4.2,3.44,5.56,1.07.49,1.6,1.35,1.62,2.62.06,3.45,1.92,4.84,3.47,5.4.28.1.77.75,1.09,1.17.17.22.33.44.5.65.48.58.91,1.2,1.37,1.85.2.29.4.58.61.86.13.19.28.37.43.55.22.27.44.54.52.74.68,1.71,1.92,2.45,3.04,2.94.53.23,1.08.43,1.63.62,1.48.53,2.76.98,3.53,2.17.65.99,1.74,1.64,2.54,2.02.55.26,1.13.42,1.64.55.53.14,1.03.28,1.33.49,1.72,1.18,3.55,1.18,4.88,1.18.22,0,.46-.01.7-.02.24-.01.63-.03.83-.01,1.06.91,2.17.96,2.99,1,.16,0,.33.02.57.04.26.03.69.07.79.11,2.49,1.9,5.23,2,7.34,1.88.69-.04,1.39-.02,2.12,0,.86.02,1.75.04,2.65-.03.83-.06,1.71-.02,2.62.04.62.03,1.26.07,1.91.07,1.54,0,3.16-.2,4.73-1.08.06,0,.11,0,.17,0,.96-.08,1.94-.05,2.98-.02,2.35.07,4.77.14,7.25-1.05.61-.29,1.41-.41,2.25-.52.9-.13,1.83-.26,2.75-.62,3.2-1.25,6.27-2.74,9.24-4.17,1.03-.5,1.96-1.35,2.48-2.27.61-1.08,1.62-1.76,2.78-2.55.59-.4,1.21-.82,1.79-1.31,2.29-1.92,4.88-4.09,6.79-6.76,1.79-2.51,3.18-5.29,4.52-7.99.33-.65.65-1.31.98-1.95,1.24-2.42,2.45-5.36,2.09-8.8-.1-.94-.09-1.92.02-2.93.03-.32.2-.71.4-.96,1.66-2.06,2.52-4.39,2.55-6.92.06-5.43.04-10.94.03-16.27v-4.06c-.01-.96-.01-2.16-.91-3.35-.09-.18-.11-.71-.05-.85,1.12-1.68,1.01-3.36.91-4.71-.03-.38-.06-.77-.05-1.16v-1.16s-1.87-.5-1.87-.5c-.01-.12-.02-.25-.03-.35,1.09-1.53,1.04-3.15,1-4.45-.01-.34-.02-.68,0-1.02.03-.92.03-1.84.02-2.76,0-.67,0-1.35,0-2.02v-.3c0-.22,0-.59.02-.66,1.39-2.37,1.4-4.74.01-7.05-.07-.12-.11-.43-.1-.6,1.3-1.86,1.17-3.86,1.05-5.46-.02-.22-.03-.44-.04-.67-.03-.57.02-1.19.06-1.84.12-1.6.26-3.57-.86-5.42ZM1131.67,195.16v8.43c0,4.5,0,9-.01,13.5,0,.21,0,.42.01.64.03.91.01,1.25-.33,1.61-.69.73-.67,1.73-.66,2.45,0,.2.01.4,0,.58-.08.7-.1,1.39-.13,2.05-.05,1.33-.1,2.59-.55,3.86-.54,1.53-.94,3.17-1.33,4.76-.15.61-.3,1.21-.45,1.81-.21.79.09,1.61.39,2.07.02.03.04.06.05.08,0,0-.02.02-.03.03-.61.62-.77,1.44-.91,2.1-.29,1.45-.89,2.07-2.38,2.48-.94.26-1.7.81-2.37,1.31-.18.13-.36.26-.54.38-.64.44-1.27.9-2,1.44l-1.63,1.19-.17,2.57c-.63,0-1.25,0-1.87.02-.17,0-.34,0-.51,0-.92-.02-2.17-.03-3.34,1.02-.15.03-.39.03-.53,0-1.25-1.03-2.58-1.03-3.56-1.01-.18,0-.36,0-.54,0l-.48-.02c-.88-.04-1.79-.07-2.73.03-3.99.45-7.63-.87-11.86-2.97-.76-.38-1.54-.58-2.29-.78-.24-.06-.49-.13-.73-.2-.31-.09-.61-.13-.89-.17-.02,0-.05,0-.07,0-.36-.59-.77-1.1-1.17-1.59-.71-.88-1.33-1.63-1.41-2.57-.14-1.62-.4-4.63-3.74-5.94-.15-.06-.49-.19-.18-1.48.37-1.53-.38-6.23-.77-7.37-.19-.53-.28-1.24-.28-2.15,0-9.16-.01-18.31-.01-27.47,0-10.34,0-20.68-.02-31.02,0-.24,0-.49.02-.73.05-1.23.11-2.75-.95-4.22.03-.22.12-.58.18-.81.07-.27.14-.54.18-.79.05-.25.21-.58.41-.97.61-1.23-.12-2.26-.43-2.7,0,0-.01-.02-.02-.03.84-.89.75-2.21.66-3.38-.02-.33-.05-.66-.04-.96.02-.82.01-1.65,0-2.47v-1.06c0-.35,0-.7,0-1.05,0-.84.02-1.67-.02-2.51-.05-1.13-.11-2.54-.81-4.09-.26-.57-.11-1.67.03-2.63.06-.4.11-.8.15-1.19.02-.23.12-.53.23-.85.18-.53.38-1.13.39-1.82.06-5.18.06-10.51,0-16.28,0-.77-.24-1.45-.44-2.04-.07-.21-.14-.42-.2-.63-.05-.18-.11-.37-.17-.55-.06-.16-.14-.4-.14-.49-.04-1.6-.03-3.24-.01-4.82v-.53s0-.04,0-.06c1.05-1.26,1.01-2.68.98-3.74,0-.31-.02-.61,0-.91.05-.68.22-2.77-1.75-4.19-.2-.14-.56-.4-.18-1.4,1.41-3.62,2.03-6.73,1.95-9.8-.06-2.36-.05-4.78-.04-7.12,0-1.62.02-3.24,0-4.85,0-.21.01-.42.02-.64.05-.94.13-2.31-.85-3.47.61-1.09.79-2.25.96-3.3.17-1.08.32-2.02.88-2.72.59-.72.73-1.62.84-2.33.03-.21.06-.41.11-.6.08-.33.06-.62.04-.86.36-2.18.42-3.07-.2-4.19.63-.38,1.17-1.01,1.35-2.11.12-.14.37-.32.46-.35,3.22-.34,4.72-2.66,5.93-4.53l.18-.29c.72-1.11.9-1.3,1.54-1.33.9-.04,1.57-.54,2.11-.95.15-.11.29-.22.44-.31.36-.22.72-.48,1.09-.75.96-.7,1.57-1.11,2.09-.94,1.5.49,2.85.27,4.03.08.73-.12,1.42-.23,2.04-.15,1.88.24,3.76.15,5.58.06l.92-.04c.52-.02.95-.21,1.32-.43.35.25.8.43,1.34.35.84-.11,1.3.25,2.33,1.23.15.15.31.29.46.43,1.83,1.67,3.74,2.49,5.85,2.49h.06c.71,0,.8,0,1.21,1.3.51,1.61,1.26,3.18,2.18,4.55.92,1.37,1.51,2.4,1.8,3.66.28,1.19.73,2.29,1.17,3.35.18.43.35.86.52,1.3.05.13.11.26.18.38h0c.24,3.97,1.86,7.3,3.71,10.6l-1.48.47-.07,1.02c-.01.19-.03.38-.04.57-.04.48-.08.97-.08,1.46,0,8.08-.01,16.17,0,24.25,0,1.16.3,2.16.66,3.26.68,2.09.67,4-.04,5.69-1.12,2.66-1.09,5.25.09,7.29,1.02,1.76.54,3.32-.08,5.31l-.22.72c-.18.61-.39,1.3-.4,2.06-.03,2.54-.05,5.55.01,8.55.02.71.27,1.33.48,1.83.06.15.12.29.17.44.06.17.15.35.25.53-.16,2.1.72,3.79,1.58,5.29-1.26,1.27-1.77,2.99-1.51,5.15,0,.04.01.08.02.12-1.33,1.9-1.17,3.96-1.03,5.64.05.58.09,1.14.08,1.65-.02.88.27,1.64.52,2.32.16.43.33.88.33,1.17,0,.3-.17.75-.34,1.19-.25.65-.53,1.39-.54,2.22-.08,8.25-.08,16.75,0,25.27.01,1.42.7,2.79,1.22,3.7.55.96.78,1.82.72,2.76l-1.99.6Z"/><path class="cls-1" d="M906.82,78s.02-.04.03-.07c.06-.15.12-.29.16-.42.03-.1.09-.19.14-.29.19-.37.46-.87.47-1.5.04-2.4.03-4.8.03-7.19v-3.37s-2.01-.58-2.01-.58c.04-.72.08-1.4.29-1.79.89-1.62.88-3.05-.03-4.5-.21-.34-.44-.67-.66-1-.42-.61-.81-1.19-1.1-1.79-.22-.46-.5-.85-.77-1.24-.84-1.2-.81-1.3-.28-1.89.66-.71.71-1.86.17-3.39-.24-.67-.59-1.24-.91-1.74-.11-.18-.22-.35-.32-.53l-.64-1.12-.81.31c-.36-1.46-1.35-2.49-2.28-3.27-.48-.4-.58-.57-.59-.59-.31-1.11-1.02-2.46-2.67-3.25,0-.27,0-.53-.02-.76-.03-.62,0-.71.06-.77l.58-.59-.08-.76c-.06-.53-.54-1.77-1.41-2.27-.77-.44-1.57-.78-2.34-1.1-.13-.05-.26-.11-.39-.16-.08-.18-.17-.36-.25-.54-.41-.89-.88-1.9-1.53-2.81-.48-.67-1.12-1.06-1.65-1.37-.64-.38-.83-.54-.88-.79l-.14-.69-.62-.33c-.75-.4-1.5-.8-2.24-1.2-1.83-.98-3.72-1.99-5.54-3.03-.76-.43-1.48-.62-2.15-.59l-.36-1.45h-1.16c-.88-.02-1.75-.29-2.68-.58-1.25-.39-2.65-.83-4.22-.63-2.68-1.93-5.63-2.01-8.2-1.94-.66,0-1.38-.13-2.29-.32-.44-.09-.91-.19-1.42-.28-.75-.22-1.35.19-1.9.68l-1.32.97c-.35.08-.7-.11-1.45-.49-.27-.14-.54-.25-.82-.37-.19-.08-.38-.16-.56-.25-3.55-1.76-6.51-1.27-9.3,1.55l-.36.35c-.31.3-.64.62-.95.99-.16.19-.5.6-1.31.16-1.87-1.02-4.65-2.13-7.47-.26-.29-.14-.6-.22-.91-.23-.02,0-.04,0-.06,0-.93,0-1.53.59-1.89.94-.08.07-.15.15-.24.22-.35.26-.63.35-.71.35-3.55.13-6.08,2.04-8.55,3.9l-.22.16c-.62.47-1.21.92-1.82,1.25-1.07.59-2.33,1.53-2.62,3.53-.1.7-.18.9-.16.9-.13.09-.64.23-1.1.36l-.1.03c-1.48.42-2.88,1.13-3.94,2.02-.82.69-1.39,1.58-1.9,2.36-.18.29-.37.57-.56.85-1.94,2.7-3.72,5.41-4.25,8.76l-1.49.51-.2.77c-.17.64-.29,1.29-.42,1.91-.23,1.2-.43,2.23-.9,2.96-1.4,2.19-.93,3.94-.08,5.3-.09.15-.17.3-.24.45-.14.29-.29.58-.43.87-.43.85-.88,1.74-1.14,2.74-.21.84-.32,1.68-.41,2.49-.14,1.15-.27,2.23-.69,3.03-1.03,1.95-1.03,3.73-.93,5.53.04.79.3,1.49.52,2.1.18.48.34.94.34,1.27,0,.35-.17.83-.36,1.34-.21.57-.44,1.22-.52,1.93-.16,1.51-.17,3.16-.02,5.02.09,1.12.29,2.21.49,3.28.07.36.13.72.2,1.09-.05.16-.1.32-.15.49-.24.77-.52,1.65-.54,2.62-.07,3.94-.05,7.94-.04,11.81v2.72c0,.1,0,.21,0,.33-.03.71-.06,1.69.63,2.4.36.37.39.77.36,1.74,0,.36-.01.72,0,1.07.01.18,0,.38-.01.58-.04.73-.09,1.74.58,2.5.4.46.42.97.42,1.89,0,.33,0,.65.02.98,0,.09,0,.18,0,.28.01.61.03,1.52.73,2.16.28.26.33.53.24,1.52-.18,1.96.25,3.86,1.29,5.83.25.47.44,1.02.63,1.61.22.65.45,1.32.79,1.98.59,1.15,1.3,2.23,1.98,3.27l.55.84c.55.85,1.11,1.69,1.67,2.52l1.66,2.49,1.28-1.02c.39-.31.63-.37.66-.37.11.06.55.61.67,2.21l.06.75,4.76,3,.36,2.91,1.22.09c2.18.17,3.34.68,4.95,2.19.1.09.2.2.31.3.71.72,1.6,1.61,2.8,1.5.52-.05.75.12,1.45.81.25.25.51.5.78.72.49.39.94.92,1.42,1.48,1.2,1.39,2.67,3.1,5.28,3.22.04.04.07.07.11.1,2.58,2.22,5.04,3.43,7.68,3.77.06.02.22.12.34.2,1.5.96,2.99,1.93,4.45,2.87l2.29,1.49,1.61-1.24.08,1.69.76.4c.28.15.55.29.8.43.55.3,1.07.58,1.62.83.23.1.47.23.71.36.86.45,1.82.98,2.94.9,1.83-.1,3.35.67,5.11,1.57l.19.1c2.02,1.03,3.26,2.22,4.01,3.87.33.71.81,1.56,1.7,1.92,1.73.7,2.68,2.04,3.92,4.01,2.87,4.54,4.87,8.5,5.32,13.07l.1,1.02,1.06.3c-.17.92-.35,1.87-.35,2.84-.03,4.33-.03,8.66-.03,12.99,0,2.76,0,5.51,0,8.27,0,.15,0,.32,0,.48,0,.3.02.8-.03,1.01-.93,1.13-.94,2.29-.95,3.14v.29c-.02.79-.02,1.58-.01,2.37,0,.55,0,1.1,0,1.65,0,.3,0,.6.01.9.05,1.63-.01,2.25-.86,2.76-.67.41-.86,1.1-.98,1.51l-.05.16c-.17.49-.33.99-.5,1.48-.17.51-.34,1.02-.52,1.53-.09.26-.18.53-.27.8-.24.72-.46,1.4-.76,2.03-.42.9-.88,1.83-1.47,2.51-.18.21-.51.43-.87.65-.45.29-.95.61-1.4,1.08-3.85,4.06-8.43,5.93-14,5.8-1.11-.03-2.23-.02-3.34,0-1.28.01-2.6.03-3.88-.03-.72-.03-1.48-.2-2.36-.39-.45-.1-.93-.2-1.43-.3l-.8-.15-.56.59c-.39.42-1.05.39-1.93.28-.23-.24-.43-.48-.62-.7-.64-.73-1.24-1.42-2.05-1.9-1.9-1.14-3.16-2.45-3.96-4.14-.37-.77-.83-1.46-1.27-2.12-.31-.46-.6-.89-.84-1.33l-.17-.31c-.48-.85-.93-1.65-1.12-2.43-.42-1.73-.99-4.05-3.41-5.15,1.75-1.88,1.66-2.74.6-5.12-.15-.33-.18-.86-.19-1.34-.02-.84-.02-1.68-.02-2.52,0-.82,0-1.65-.01-2.47v-.17c-.01-.75-.03-1.79-.77-2.51-.19-.19-.22-.35-.21-1.1v-.62c-.02-1.22-.04-2.48,0-3.71.01-.32,0-.65,0-.97,0-1.11-.01-1.99.52-2.82.76-1.18.35-2.7.02-3.93l-.08-.32c-.03-.11-.06-.22-.11-.33,1.12-2.16.78-4.37.48-6.33l-.1-.69c-.08-.54-.29-1.03-.62-1.45l.74-.3v-5.04h-7.61l-.49-.28-.05.28h-23.71v19.17c0,.18,0,.36,0,.54-.02,1.12-.05,2.56.83,3.77-.91,2.14-1.12,4.61-.47,6.11.96,2.21.94,6.01-.06,7.98l-.27.53.17.57c.21.7.43,1.38.65,2.05.46,1.42.9,2.75,1.1,4.08.13.85.2,1.71.28,2.61.13,1.45.26,2.94.62,4.48.52,2.22,1.35,4.78,3.55,6.96.29.29.44.49.51.59-.24,2.63,1.3,4.23,2.55,5.52.74.77,1.37,1.7,2.03,2.69.17.25.34.5.51.75-.48,2.83,1.38,4.5,2.37,5.41.52.46,1,.97,1.52,1.5.72.74,1.46,1.51,2.31,2.2.13.1.26.22.39.33.88.75,2.63,2.25,4.83,1.13.37.34.77.53,1.17.65-.05.04-.09.08-.14.12l-1.6,1.53,6.4,2.94.21-.8c.21.46.49.9.9,1.26,1.75,1.56,3.49,2.25,5.31,2.13.5-.03,1.01-.03,1.56-.02.56,0,1.12.02,1.67-.01.62-.04.7.1.79.24,1.15,1.88,3.1,1.82,3.93,1.8.22,0,.45-.02.7-.04.24-.02.61-.04.81-.04,1.27,1.14,2.65,1.1,3.67,1.06.21,0,.43-.02.64,0,2,.06,3.94.04,5.58,0,1.27-.02,2.32-.27,3.4-.8,1.07-.52,2.3-.48,3.3.12.86.51,2.01.76,3.16.76,1.42,0,2.84-.38,3.69-1.11.39-.33.79-.67,1.01-.82.24.11.68.39,1.11.66l.79.49.79-.48c.21-.13.42-.29.64-.46.11-.08.26-.21.36-.27,1.29-.02,2.44-.36,3.46-.67.39-.12.78-.24,1.18-.33,1.44-.36,2.56-1.01,3.62-2.13.16-.17.32-.35.46-.53l1.14.75.86-.8c.41-.38.8-.78,1.19-1.19.8-.82,1.55-1.6,2.38-2.07.97-.54,1.66-1.29,2.27-1.94.55-.59,1.02-1.09,1.61-1.41l.33-.17c.74-.4,1.16-.61,1.7-.62,3.12-.08,4.42-1.45,4.5-4.72.02-.73.04-1.47.07-2.2,3.89-.33,5.34-2.29,6-5.17l2.26-.65-.27-1.35c-.05-.25-.09-.5-.12-.75-.09-.65-.19-1.33-.5-2-.48-1.03-.46-1.54-.39-1.67.07-.13.5-.39,1.61-.49.31-.03.58-.11.77-.17l.87-.23.29-.7c.13-.31.27-.62.42-.92.37-.8.76-1.62.92-2.57.08-.45.28-.94.49-1.46.38-.92.84-2.04.72-3.34,1.03-1.62.94-3.36.87-4.78-.03-.59-.06-1.15-.01-1.66.08-.87.04-1.72,0-2.54-.07-1.63-.13-3.03.67-4.25.4-.6.36-1.25.33-1.64,0-.06,0-.12,0-.18v-3.08c.01-3.26.02-6.63-.04-9.95-.02-.92-.37-2.32-1.31-3.22-.47-.46-.56-.93-.73-2.01-.05-.36.06-.84.18-1.36.21-.93.49-2.13-.04-3.4.07-.11.13-.21.17-.3.12-.23.25-.45.39-.67.36-.6.76-1.27.97-2.07.4-1.52.71-3.1-.18-4.19-.73-.89-.97-2.01-1.24-3.31-.24-1.14-.49-2.31-1.1-3.43,1.8-2.18.48-4.23.04-4.9-.27-.41-.49-.91-.72-1.44.21-.3.42-.67.5-1.13.45-2.68-.67-4.89-1.65-6.84l-.25-.49c-.54-1.08-1.81-1.38-2.74-1.6l-.18-.04c-.33-.08-.65-.12-.96-.15v-.09l1.88-.57-.48-1.46c-.71-2.12-1.67-4.24-3.9-5.3-.64-.3-.94-.62-1.16-1.22-.87-2.36-2.62-3.97-4.02-5.26-.31-.28-.64-.42-.88-.52-.07-.03-.14-.06-.22-.1l-1.76-.86-.11.54s-.08-.09-.12-.14c-.67-.72-1.38-1.4-2.06-2.07-.82-.79-1.59-1.55-2.31-2.35-1.56-1.74-3.4-1.68-4.76-1.39l.29-2.32-1.31-.52c-.2-.08-.46-.18-.71-.29-.68-.29-1.35-.67-2.05-1.07-1.73-.98-3.67-2.06-6.13-2.03-.1-.08-.24-.22-.37-.39-1.56-2.01-3.56-2.85-5.95-2.5-.12.02-.23.02-.32.02-.28,0-.44-.05-.45-.03-.41-2.15-1.97-2.8-3-3.23l-.19-.08c-.59-.25-1.18-.52-1.89-.85l-2.26-1.04-1.83,2.51c-.02-.16-.04-.38-.05-.59-.26-3.39-1.63-4.67-5.06-4.71-.37,0-.74,0-1.1,0-.63,0-1.23.02-1.81-.03-.43-.03-.62-.07-.71-.1-.58-.6-1.12-1.26-1.68-1.96-.34-.42-.69-.85-1.04-1.26-.44-.51-.93-.93-1.37-1.28-.26-.21-.54-.4-.82-.59-.2-.14-.4-.27-.59-.42-.47-.37-.94-.74-1.42-1.11-2.48-1.92-4.82-3.74-6.78-6.03-.46-.54-1.06-.85-1.57-1.08-.02-.37-.02-.7-.02-1.01,0-2.4-.24-3.5-4.92-8.71l2.32-3.76-.06-.52c-.05-.41-.1-.79-.15-1.15-.1-.67-.18-1.26-.18-1.8-.02-3.21-.02-6.41-.02-9.61,0-2.71,0-5.42,0-8.13,0-.17,0-.33.01-.5.03-.92.07-2.27-.93-3.48.05-.07.12-.14.2-.24l.19-.22c.62-.69,1.38-1.55,1.46-2.68l.02-.37c.12-1.78.25-3.79-1.07-5.82-1.49-2.29-.07-4.38.92-5.42.96-1.03,1.83-2.26,2.5-3.56.18-.35.35-.69.53-1.04.86-1.71,1.66-3.33,3.04-4.49.65-.55.97-1.33,1.1-1.75.36-1.14.69-2.29,1.04-3.5l.09-.33c3.7.29,6.8-1,9.16-3.76.1-.06.43-.16.65-.22.16-.05.33-.09.48-.14.25-.08.52.04,1.13.34.52.26,1.16.58,1.92.66,1.99.2,4.02.2,6.02.02.51-.05,1.11.07,1.74.2.87.17,1.89.38,2.98.19l.41,1.53h1.14c1.81.04,3.33.75,4.93,2.32.65.64,1.72,1.7,3.03,1.71.7,0,.94.15,1.56,1.42.09.19.18.39.27.59.52,1.18,1.22,2.8,3.35,3.45.08.02.14.06.19.17.09.2.08.51-.02.75-.55,1.22-.34,2.15-.18,2.89.03.12.05.24.08.37.15.79.39,1.52.63,2.22.42,1.22.77,2.28.54,3.35-.15.68.04,1.65.69,2.19.24.2.28.4.23,1.31-.01.27-.02.54-.02.81.02.89.02,1.78.01,2.67,0,.77,0,1.55,0,2.32,0,.1,0,.21,0,.32-.02.71-.04,1.69.67,2.4.29.29.32.61.31,1.44,0,.36,0,.76.04,1.19.13,1.12.06,2.28-.02,3.52-.13,2.04-.28,4.33.61,6.59-.7,1.06-.64,2.22-.6,3.03.02.35.04.68,0,.93-.52,3.32.6,6.06,3.33,8.14.2.15.39.32.58.48.91.77,2.16,1.82,4.15,1.56.39-.05.87-.03,1.38,0,1.09.05,2.34.11,3.38-.57.76-.49.88-.37,1.11-.12l.56.59.8-.15c.52-.1,1.01-.2,1.47-.3.92-.19,1.72-.36,2.49-.43.9-.09,1.94-.09,3.25,0,2.3.13,3.48-1.31,4.16-2.43.46-.76,1-1.52,1.53-2.24l2.81,1.17v-3.79c.01-1.22.02-2.38-.02-3.53-.04-1.14-.31-1.97-.83-2.55-.04-.04-.07-.08-.09-.11.03-.06.08-.15.17-.3.41-.65.66-1.47.75-2.52.1-1.26.11-2.31,0-3.28-.06-.58-.02-1.23.03-1.91.1-1.49.21-3.31-.84-5.03Z"/><path class="cls-1" d="M1037.61,20.03c-.03-.36-.07-.74-.08-1.11l-.07-1.51-1.51.08c-.36.02-.73,0-1.09-.02-.99-.04-2.11-.09-3.08.47-1.57.92-2.99.85-5.08-.24l-.82-.43-1.19.86c-.13-.04-.26-.08-.39-.12-.77-.24-1.5-.47-2.31-.49-4.06-.1-7.17-.09-10.09.02-.78.03-1.46.31-2.06.55-.39.16-.79.32-1.03.32h0c-.29,0-.73-.17-1.16-.33-.68-.26-1.48-.56-2.34-.52-.55.02-1.14-.03-1.77-.08-1.7-.14-3.8-.32-5.73,1.04-.03,0-.05,0-.07,0h-.14c-1.25-.13-2.97-.13-4.53.94-.16-.13-.29-.26-.39-.38-1.17-1.4-2.64-1.59-3.79-1.59h-.02c-11.84.02-23.45.02-34.49,0h-.01c-1.49,0-2.66.47-3.7,1.48-.43.42-.83.65-1.12.65,0,0,0,0-.01,0-.28,0-.59-.27-.79-.49-1.35-1.45-2.9-1.64-4.21-1.64-4.1.02-8.19.01-12.31.02-2.65,0-5.29,0-7.94,0-.56,0-1.09.06-1.44.1l-1.15.09-.99,2.41c-.47,1.15-.91,2.19-1.33,3.24l-.14.34c-.24.55-.53,1.23-.54,2.01-.05,3.1-.09,6.78.01,10.56.03,1.17.59,2.46,1.4,3.2.47.43.61.79.57,1.47-.04.88-.07,1.91.04,2.98.22,2.1,1.73,3.54,3.69,3.54.03,0,.07,0,.1,0,1.15-.03,2.3.01,3.52.06,4.42.16,9,.32,13.13-2.99.64-.24,1.08-.07,1.43.53.1.17.18.45.28.77.06.21.13.43.21.67l.35,1.01h6.9c3.39,0,6.78,0,10.17,0,1.09,0,1.73.06,1.87.13.12.16.22.78.3,1.83v.26c.04.62.08,1.54.79,2.17.19.17.22.44.21,1.24,0,.73-.02,1.73.51,2.64-1.29,2.71-1.79,5.77-1.51,9.33v.21c.07.74.13,1.66.68,2.43.68.95.65,2.21.27,2.9-.95,1.76-.95,3.41-.95,4.87v.59c-.05,3.58-.04,7.22-.02,10.74v1.79c0,.21,0,.42,0,.63-.03,1.15-.07,2.63.86,3.92-1.3,2.41-1.24,4.73.16,7.08.17.29.15,1.2-.02,1.48-.96,1.41-.97,2.8-.98,3.91v.21c-.02,2.24-.02,4.47-.01,6.71v8.55s1.3.18,1.3.18c.88.12,1.33.37,1.6.67-2.41,1.92-3.36,4.63-2.89,8.27.04.31.04.69,0,1.17-.18,1.99.43,3.5,1.83,4.58,0,0,.01.02.02.03-.59,1.14-.29,2.23.07,3.02-2.02,1.55-1.96,3.87-1.93,5.01.05,1.97.04,3.99.03,5.93,0,.84,0,1.68,0,2.53v6.87c0,.58,0,1.15,0,1.72,0,1.27-.02,2.47.02,3.69.02.68,0,1.38-.02,2.11-.08,2.46-.17,5.24,1.64,7.81l.36.51,1.84.31v1.83l-3.83-.67v9.92c-.01,4.95-.02,10.06.03,15.1.01,1.16.24,2.27.45,3.34.07.37.15.73.21,1.1-.06.28-.12.56-.18.85-.2.94-.41,1.92-.48,2.95-.11,1.51-.11,3.11,0,5.18.03.59.23,1.09.38,1.5.08.22.18.46.19.58.09,1.21.1,2.41,0,3.56-.01.17-.11.44-.2.71-.16.46-.37,1.04-.37,1.69-.05,6.62-.05,12.68,0,18.52,0,.74.23,1.38.43,1.95.11.3.21.59.25.82.03.16.06.33.1.5.05.22.12.59.15.83-1.01,1.27-.98,2.63-.95,3.63,0,.2,0,.4,0,.6-.02.92,0,1.84,0,2.76.01,1.22.02,2.48-.03,3.7-.07,1.52,0,3.76,1.43,5.68.78,1.04.76,1.86-.08,3.01-1.59,2.2-1.45,4.52-1.33,6.57.05.78.09,1.51.05,2.24l-.1,1.96,1.91-.41c.22-.05.42-.07.58-.1.49-.07,1.04-.14,1.54-.55.75-.61,1.17-.61,1.92,0,.57.46,1.2.73,1.75.97l.34.15c.95.42,1.8.58,2.55.58,1.11,0,1.99-.35,2.63-.74,1.07-.65,2.1-1.4,2.95-2.05.63-.48,2.07-.47,2.35-.18,3.11,3.37,6.97,3.05,10.37,2.77l1.96-.16v-4.39l-2.22-1.5c1.57-2.05,2.35-4.42,2.37-7.2.03-3.34.02-6.67,0-9.77v-.31c.01-.71.03-1.6-.45-2.4-.8-1.32-.67-2.78-.53-4.46.06-.72.13-1.45.12-2.21,1.03-1.37.95-2.92.88-4.09-.02-.3-.04-.61-.03-.9.02-1.66.02-3.32.01-4.98,0-1.84-.01-3.67.02-5.51v-.2c.04-1.82.09-4-1.42-5.79,1.58-1.73,1.48-3.9,1.42-5.19-.05-1.06-.04-2.12-.03-3.23,0-1,.02-2-.02-3-.04-1-.3-1.98-.76-2.76-.32-.55-.32-.97,0-1.63,1.09-2.24,1.13-3.36-.79-5.2-.64-.61-1.35-1.11-2.04-1.59-.14-.1-.29-.2-.43-.31-.03-.58.23-.95,1.14-1.27,2-.69,3.04-2.33,2.92-4.62-.04-.86-.03-1.72-.02-2.63.01-.93.02-1.9-.03-2.87-.04-.79-.25-1.53-.44-2.24-.04-.13-.07-.26-.11-.39.9-1.86.88-3.93-.06-6.14-.24-.57-.29-1.24-.25-1.39,1.07-1.76.92-3.48.8-4.86-.03-.32-.05-.63-.07-.95l-.04-1.05-1.74-.55v-6.23l1.92-.65v-3.98c0-3.07,0-6.11-.02-9.15,0-.6-.23-1.09-.39-1.45-.05-.11-.12-.28-.14-.33-.03-.24-.08-.5-.14-.76-.06-.32-.17-.84-.15-1.07.83-1.38.83-2.68.83-3.83v-.21c.02-6,.02-12,0-18,0-1.07,0-2.53-.94-4.05-.33-.54-.24-1.46.22-2.22,1.18-1.97.88-7.3.03-9.28-.18-.43-.28-.84-.3-1.05,1.06-1.63,1.02-3.33.98-4.71-.01-.49-.02-.96.01-1.39.11-1.42-.34-2.61-1.38-3.64-.1-.1-.2-.21-.28-.32.06-.04.12-.07.17-.1.28-.16.58-.34.85-.53l.63-.45v-4.32c0-4.06,0-8.18,0-12.3,0-.12,0-.25,0-.38.03-.71.06-1.59-.45-2.38-.24-.37-.55-.64-.88-.86,1.15-2,2.21-4.67.82-7.37.04-.17.08-.33.12-.49.18-.7.35-1.37.36-2.1.05-4.98.05-9.49,0-13.78-.01-.8-.21-1.52-.42-2.28-.05-.17-.1-.36-.15-.54.14-.27.3-.6.47-.93.8-1.59,1.62-2.12,3.03-2.01l.31.03c1.24.11,2.89.25,4.37-.84.02,0,.04.01.05.01.14.04.28.07.4.1.04.02.07.03.11.05.31.15,1.25.6,2.05-.15.2-.19.43-.2,1.18-.15.5.03,1.07.07,1.69-.06.6-.12,1.16-.32,1.71-.51,1.19,1.15,2.73,1.69,4.72,1.6,3.36-.12,6.81-.09,10.13-.06l2.29.02c1.2.01,3.2.02,4.49-1.91.07-.04.2-.1.38-.14,3.82-.9,5.32-2.76,5.17-6.42-.09-2.1.4-4.13,1.62-6.79.48-1.04.32-2.36,0-3.25-.38-1.09-1.01-2.06-1.57-2.92,0-.01-.01-.02-.02-.03,2.32-1.76,2.11-4.12,1.94-6.02Z"/></svg>